<?xml version="1.0" encoding="utf-8"?>
<!-- Generator: Adobe Illustrator 21.0.0, SVG Export Plug-In . SVG Version: 6.00 Build 0)  -->
<svg version="1.1" id="Layer_2" xmlns="http://www.w3.org/2000/svg" xmlns:xlink="http://www.w3.org/1999/xlink" x="0px" y="0px"
	 viewBox="0 0 350 319" style="enable-background:new 0 0 350 319;" xml:space="preserve">
<style type="text/css">
	.st0{fill:none;stroke:#000000;stroke-width:2;}
	.st1{fill:#FFFFFF;}
	.st2{fill:#FFFFFF;stroke:#000000;stroke-width:2;}
</style>
<g>
	<g>
		<line class="st0" x1="18.2" y1="72.1" x2="110" y2="72.1"/>
		<g>
			<polygon points="103.4,80.3 102,78.8 109.3,72.1 102,65.4 103.4,63.9 112.2,72.1 			"/>
		</g>
	</g>
</g>
<g>
	<path d="M25.3,23.7h1.2v7.6h4.3v1h-5.5V23.7z"/>
	<path d="M34.1,23.5l-1.6,1.7h-0.8l1.1-1.7H34.1z M32.3,26h1.1v6.2h-1.1V26z"/>
	<path d="M35.4,26h1v0.9c0.3-0.4,0.6-0.6,0.9-0.8s0.7-0.2,1.1-0.2c0.9,0,1.5,0.3,1.8,0.9c0.2,0.3,0.3,0.8,0.3,1.5v4h-1.1v-4
		c0-0.4-0.1-0.7-0.2-0.9c-0.2-0.4-0.5-0.6-1-0.6c-0.2,0-0.5,0-0.6,0.1c-0.3,0.1-0.5,0.3-0.8,0.5c-0.2,0.2-0.3,0.4-0.3,0.6
		s-0.1,0.5-0.1,0.9v3.3h-1.1V26z"/>
	<path d="M46.1,26.2c0.4,0.2,0.7,0.5,0.9,0.8c0.2,0.3,0.3,0.7,0.4,1.1c0.1,0.3,0.1,0.8,0.1,1.4H43c0,0.6,0.2,1.2,0.4,1.5
		c0.3,0.4,0.7,0.6,1.3,0.6c0.5,0,1-0.2,1.3-0.5c0.2-0.2,0.3-0.5,0.4-0.7h1c0,0.2-0.1,0.5-0.3,0.8s-0.3,0.5-0.5,0.7
		c-0.3,0.3-0.7,0.5-1.2,0.6c-0.3,0.1-0.5,0.1-0.9,0.1c-0.8,0-1.4-0.3-2-0.9c-0.5-0.6-0.8-1.4-0.8-2.4c0-1,0.3-1.8,0.8-2.5
		c0.5-0.6,1.3-0.9,2.1-0.9C45.2,25.9,45.6,26,46.1,26.2z M46.4,28.7c0-0.5-0.1-0.8-0.3-1.1c-0.3-0.5-0.8-0.8-1.4-0.8
		c-0.5,0-0.9,0.2-1.2,0.5S43,28.1,43,28.7H46.4z"/>
	<path d="M52.3,28.5c0.2,0,0.4-0.1,0.5-0.3c0-0.1,0.1-0.2,0.1-0.4c0-0.4-0.1-0.6-0.4-0.8c-0.3-0.2-0.6-0.2-1.1-0.2
		c-0.5,0-0.9,0.1-1.2,0.4c-0.1,0.2-0.2,0.4-0.3,0.7h-1c0-0.8,0.3-1.3,0.8-1.6c0.5-0.3,1-0.5,1.7-0.5c0.7,0,1.3,0.1,1.8,0.4
		c0.5,0.3,0.7,0.7,0.7,1.3v3.6c0,0.1,0,0.2,0.1,0.3c0,0.1,0.1,0.1,0.3,0.1c0,0,0.1,0,0.2,0s0.1,0,0.2,0v0.8c-0.2,0-0.3,0.1-0.4,0.1
		s-0.2,0-0.4,0c-0.4,0-0.6-0.1-0.8-0.4c-0.1-0.1-0.1-0.3-0.2-0.6c-0.2,0.3-0.5,0.5-0.9,0.7s-0.8,0.3-1.3,0.3c-0.6,0-1.1-0.2-1.4-0.5
		s-0.6-0.8-0.6-1.3c0-0.6,0.2-1,0.5-1.4s0.8-0.5,1.4-0.6L52.3,28.5z M50.1,31.3c0.2,0.2,0.5,0.3,0.8,0.3c0.4,0,0.7-0.1,1.1-0.3
		c0.6-0.3,0.9-0.8,0.9-1.4v-0.8c-0.1,0.1-0.3,0.2-0.5,0.2c-0.2,0.1-0.4,0.1-0.6,0.1l-0.6,0.1c-0.4,0.1-0.7,0.1-0.9,0.2
		c-0.3,0.2-0.5,0.5-0.5,0.9C49.8,30.9,49.9,31.2,50.1,31.3z"/>
	<path d="M62.7,26.2c0.2,0.1,0.4,0.3,0.6,0.6v-3.2h1v8.6h-0.9v-0.9c-0.2,0.4-0.5,0.7-0.9,0.8c-0.3,0.2-0.7,0.3-1.1,0.3
		c-0.7,0-1.3-0.3-1.8-0.9s-0.8-1.4-0.8-2.3c0-0.9,0.2-1.7,0.7-2.4c0.5-0.7,1.1-1,2-1C61.9,25.9,62.3,26,62.7,26.2z M60.3,30.9
		c0.3,0.5,0.7,0.7,1.4,0.7c0.5,0,0.9-0.2,1.2-0.6s0.5-1,0.5-1.8c0-0.8-0.2-1.4-0.5-1.8s-0.7-0.6-1.2-0.6c-0.5,0-1,0.2-1.3,0.6
		c-0.3,0.4-0.5,1-0.5,1.8C59.9,29.9,60,30.5,60.3,30.9z"/>
	<path d="M69.9,26.2c0.4,0.2,0.7,0.5,0.9,0.8c0.2,0.3,0.3,0.7,0.4,1.1c0.1,0.3,0.1,0.8,0.1,1.4h-4.6c0,0.6,0.2,1.2,0.4,1.5
		c0.3,0.4,0.7,0.6,1.3,0.6c0.5,0,1-0.2,1.3-0.5c0.2-0.2,0.3-0.5,0.4-0.7h1c0,0.2-0.1,0.5-0.3,0.8s-0.3,0.5-0.5,0.7
		c-0.3,0.3-0.7,0.5-1.2,0.6c-0.3,0.1-0.5,0.1-0.9,0.1c-0.8,0-1.4-0.3-2-0.9c-0.5-0.6-0.8-1.4-0.8-2.4c0-1,0.3-1.8,0.8-2.5
		c0.5-0.6,1.3-0.9,2.1-0.9C69,25.9,69.5,26,69.9,26.2z M70.3,28.7c0-0.5-0.1-0.8-0.3-1.1c-0.3-0.5-0.8-0.8-1.4-0.8
		c-0.5,0-0.9,0.2-1.2,0.5s-0.5,0.8-0.5,1.3H70.3z"/>
	<path d="M76.8,24.1c0.2-0.4,0.7-0.5,1.4-0.5c0.1,0,0.1,0,0.2,0s0.2,0,0.2,0v1c-0.1,0-0.2,0-0.2,0c0,0-0.1,0-0.1,0
		c-0.3,0-0.5,0.1-0.6,0.2s-0.1,0.6-0.1,1.3h1.1v0.8h-1.1v5.4h-1v-5.4h-0.9V26h0.9v-1C76.5,24.6,76.6,24.3,76.8,24.1z"/>
	<path d="M79.7,23.7h1.1v8.6h-1.1V23.7z"/>
	<path d="M83.6,26v4.2c0,0.3,0,0.6,0.1,0.8c0.2,0.4,0.5,0.6,1,0.6c0.7,0,1.2-0.3,1.5-1c0.1-0.4,0.2-0.8,0.2-1.4V26h1.1v6.3h-1l0-0.9
		c-0.1,0.2-0.3,0.4-0.5,0.6c-0.4,0.3-0.9,0.5-1.4,0.5c-0.9,0-1.5-0.3-1.8-0.9c-0.2-0.3-0.3-0.7-0.3-1.3V26H83.6z"/>
	<path d="M88.3,33.9c0.5,0,0.8-0.1,0.9-0.1s0.1-0.3,0.1-0.6V26h1.1v7.2c0,0.5-0.1,0.8-0.2,1c-0.2,0.4-0.7,0.6-1.4,0.6
		c-0.1,0-0.1,0-0.2,0s-0.1,0-0.3,0V33.9z M90.4,24.9h-1.1v-1.2h1.1V24.9z"/>
	<path d="M96.6,26.6c0.6,0.5,0.8,1.3,0.8,2.4c0,1-0.2,1.8-0.7,2.5c-0.5,0.7-1.2,1-2.3,1c-0.9,0-1.5-0.3-2-0.9s-0.8-1.4-0.8-2.4
		c0-1.1,0.3-1.9,0.8-2.5c0.5-0.6,1.2-0.9,2.1-0.9C95.4,25.8,96.1,26.1,96.6,26.6z M96,30.8c0.3-0.5,0.4-1.1,0.4-1.8
		c0-0.6-0.1-1.1-0.3-1.4c-0.3-0.6-0.8-0.9-1.5-0.9c-0.6,0-1.1,0.2-1.4,0.7s-0.4,1.1-0.4,1.8c0,0.7,0.1,1.2,0.4,1.7s0.7,0.7,1.4,0.7
		C95.2,31.6,95.7,31.3,96,30.8z"/>
	<path d="M35.2,40.6c0.2,0.1,0.4,0.3,0.6,0.6v-3.2h1v8.6h-0.9v-0.9c-0.2,0.4-0.5,0.7-0.9,0.8c-0.3,0.2-0.7,0.3-1.1,0.3
		c-0.7,0-1.3-0.3-1.8-0.9s-0.8-1.4-0.8-2.3c0-0.9,0.2-1.7,0.7-2.4c0.5-0.7,1.1-1,2-1C34.4,40.3,34.8,40.4,35.2,40.6z M32.8,45.3
		c0.3,0.5,0.7,0.7,1.4,0.7c0.5,0,0.9-0.2,1.2-0.6s0.5-1,0.5-1.8c0-0.8-0.2-1.4-0.5-1.8s-0.7-0.6-1.2-0.6c-0.5,0-1,0.2-1.3,0.6
		c-0.3,0.4-0.5,1-0.5,1.8C32.4,44.3,32.5,44.9,32.8,45.3z"/>
	<path d="M42.4,40.6c0.4,0.2,0.7,0.5,0.9,0.8c0.2,0.3,0.3,0.7,0.4,1.1c0.1,0.3,0.1,0.8,0.1,1.4h-4.6c0,0.6,0.2,1.2,0.4,1.5
		C40,45.8,40.4,46,41,46c0.5,0,1-0.2,1.3-0.5c0.2-0.2,0.3-0.5,0.4-0.7h1c0,0.2-0.1,0.5-0.3,0.8S43.2,46,43,46.2
		c-0.3,0.3-0.7,0.5-1.2,0.6c-0.3,0.1-0.5,0.1-0.9,0.1c-0.8,0-1.4-0.3-2-0.9c-0.5-0.6-0.8-1.4-0.8-2.4c0-1,0.3-1.8,0.8-2.5
		c0.5-0.6,1.3-0.9,2.1-0.9C41.5,40.3,42,40.4,42.4,40.6z M42.8,43.1c0-0.5-0.1-0.8-0.3-1.1c-0.3-0.5-0.8-0.8-1.4-0.8
		c-0.5,0-0.9,0.2-1.2,0.5s-0.5,0.8-0.5,1.3H42.8z"/>
	<path d="M48.7,40.4h1v0.8c0.2-0.3,0.4-0.5,0.7-0.7c0.4-0.2,0.8-0.4,1.3-0.4c0.7,0,1.3,0.3,1.8,0.8s0.7,1.3,0.7,2.3
		c0,1.4-0.4,2.3-1.1,2.9c-0.5,0.4-1,0.6-1.6,0.6c-0.5,0-0.9-0.1-1.2-0.3c-0.2-0.1-0.4-0.3-0.6-0.6v3.2h-1.1V40.4z M52.6,45.4
		c0.3-0.4,0.5-1,0.5-1.8c0-0.5-0.1-0.9-0.2-1.3c-0.3-0.7-0.8-1-1.5-1c-0.7,0-1.2,0.4-1.5,1.1c-0.1,0.4-0.2,0.9-0.2,1.5
		c0,0.5,0.1,0.9,0.2,1.2c0.3,0.6,0.8,1,1.5,1C51.9,46,52.3,45.8,52.6,45.4z"/>
	<path d="M55.6,40.4h1v1.1c0.1-0.2,0.3-0.5,0.6-0.8s0.7-0.5,1.1-0.5c0,0,0.1,0,0.1,0s0.1,0,0.2,0v1.1c-0.1,0-0.1,0-0.2,0
		s-0.1,0-0.2,0c-0.5,0-0.9,0.2-1.2,0.5s-0.4,0.7-0.4,1.2v3.6h-1.1V40.4z"/>
	<path d="M64.2,41c0.6,0.5,0.8,1.3,0.8,2.4c0,1-0.2,1.8-0.7,2.5c-0.5,0.7-1.2,1-2.3,1c-0.9,0-1.5-0.3-2-0.9s-0.8-1.4-0.8-2.4
		c0-1.1,0.3-1.9,0.8-2.5c0.5-0.6,1.2-0.9,2.1-0.9C63,40.2,63.7,40.5,64.2,41z M63.6,45.2c0.3-0.5,0.4-1.1,0.4-1.8
		c0-0.6-0.1-1.1-0.3-1.4c-0.3-0.6-0.8-0.9-1.5-0.9c-0.6,0-1.1,0.2-1.4,0.7s-0.4,1.1-0.4,1.8c0,0.7,0.1,1.2,0.4,1.7s0.7,0.7,1.4,0.7
		C62.8,46,63.3,45.7,63.6,45.2z"/>
	<path d="M70.6,40.8c0.4,0.3,0.7,0.9,0.8,1.8h-1c-0.1-0.4-0.2-0.7-0.4-1s-0.6-0.4-1.1-0.4c-0.7,0-1.2,0.3-1.4,1
		c-0.2,0.4-0.3,0.9-0.3,1.6c0,0.6,0.1,1.2,0.4,1.6s0.7,0.6,1.3,0.6c0.4,0,0.8-0.1,1-0.4s0.4-0.6,0.5-1.1h1c-0.1,0.8-0.4,1.4-0.9,1.8
		s-1.1,0.6-1.8,0.6c-0.8,0-1.5-0.3-2-0.9S66,44.6,66,43.7c0-1.1,0.3-2,0.8-2.6s1.2-0.9,2-0.9C69.6,40.2,70.2,40.4,70.6,40.8z"/>
	<path d="M76.5,40.6c0.4,0.2,0.7,0.5,0.9,0.8c0.2,0.3,0.3,0.7,0.4,1.1c0.1,0.3,0.1,0.8,0.1,1.4h-4.6c0,0.6,0.2,1.2,0.4,1.5
		c0.3,0.4,0.7,0.6,1.3,0.6c0.5,0,1-0.2,1.3-0.5c0.2-0.2,0.3-0.5,0.4-0.7h1c0,0.2-0.1,0.5-0.3,0.8S77.2,46,77,46.2
		c-0.3,0.3-0.7,0.5-1.2,0.6c-0.3,0.1-0.5,0.1-0.9,0.1c-0.8,0-1.4-0.3-2-0.9c-0.5-0.6-0.8-1.4-0.8-2.4c0-1,0.3-1.8,0.8-2.5
		c0.5-0.6,1.3-0.9,2.1-0.9C75.6,40.3,76,40.4,76.5,40.6z M76.8,43.1c0-0.5-0.1-0.8-0.3-1.1c-0.3-0.5-0.8-0.8-1.4-0.8
		c-0.5,0-0.9,0.2-1.2,0.5s-0.5,0.8-0.5,1.3H76.8z"/>
	<path d="M80,44.7c0,0.4,0.1,0.6,0.3,0.8c0.3,0.3,0.7,0.5,1.4,0.5c0.4,0,0.7-0.1,1.1-0.3s0.5-0.4,0.5-0.8c0-0.3-0.1-0.5-0.4-0.6
		c-0.2-0.1-0.5-0.2-0.9-0.3l-0.9-0.2c-0.5-0.1-0.9-0.3-1.2-0.4c-0.5-0.3-0.7-0.7-0.7-1.2c0-0.6,0.2-1.1,0.7-1.4
		c0.4-0.4,1-0.6,1.7-0.6c1,0,1.6,0.3,2.1,0.8c0.3,0.4,0.4,0.7,0.4,1.1h-1c0-0.2-0.1-0.5-0.3-0.6c-0.2-0.3-0.7-0.4-1.3-0.4
		c-0.4,0-0.7,0.1-0.9,0.2s-0.3,0.4-0.3,0.6c0,0.3,0.1,0.5,0.4,0.7c0.2,0.1,0.4,0.2,0.7,0.3l0.7,0.2c0.8,0.2,1.3,0.4,1.6,0.5
		c0.4,0.3,0.6,0.7,0.6,1.3c0,0.6-0.2,1-0.6,1.4c-0.4,0.4-1.1,0.6-2,0.6c-0.9,0-1.6-0.2-2-0.6S79,45.3,79,44.7H80z"/>
	<path d="M90,41c0.6,0.5,0.8,1.3,0.8,2.4c0,1-0.2,1.8-0.7,2.5c-0.5,0.7-1.2,1-2.3,1c-0.9,0-1.5-0.3-2-0.9s-0.8-1.4-0.8-2.4
		c0-1.1,0.3-1.9,0.8-2.5c0.5-0.6,1.2-0.9,2.1-0.9C88.8,40.2,89.5,40.5,90,41z M89.4,45.2c0.3-0.5,0.4-1.1,0.4-1.8
		c0-0.6-0.1-1.1-0.3-1.4c-0.3-0.6-0.8-0.9-1.5-0.9c-0.6,0-1.1,0.2-1.4,0.7s-0.4,1.1-0.4,1.8c0,0.7,0.1,1.2,0.4,1.7S87.3,46,88,46
		C88.7,46,89.1,45.7,89.4,45.2z"/>
</g>
<g>
	<path d="M42.7,125.9h3.4c1.2,0,2.1,0.4,2.7,1.3c0.6,0.8,0.9,1.7,0.9,2.9c0,0.9-0.2,1.7-0.5,2.5c-0.6,1.3-1.6,2-3.1,2h-3.4V125.9z
		 M45.9,133.5c0.4,0,0.7,0,1-0.1c0.4-0.2,0.8-0.4,1.1-0.9c0.2-0.3,0.4-0.8,0.5-1.3c0.1-0.3,0.1-0.6,0.1-0.9c0-1.1-0.2-1.9-0.6-2.5
		s-1.1-0.9-2-0.9h-2v6.6H45.9z"/>
	<path d="M55.2,128.4c0.4,0.2,0.7,0.5,0.9,0.8c0.2,0.3,0.3,0.7,0.4,1.1c0.1,0.3,0.1,0.8,0.1,1.4h-4.6c0,0.6,0.2,1.2,0.4,1.5
		c0.3,0.4,0.7,0.6,1.3,0.6c0.5,0,1-0.2,1.3-0.5c0.2-0.2,0.3-0.5,0.4-0.7h1c0,0.2-0.1,0.5-0.3,0.8s-0.3,0.5-0.5,0.7
		c-0.3,0.3-0.7,0.5-1.2,0.6c-0.3,0.1-0.5,0.1-0.9,0.1c-0.8,0-1.4-0.3-2-0.9c-0.5-0.6-0.8-1.4-0.8-2.4c0-1,0.3-1.8,0.8-2.5
		c0.5-0.6,1.3-0.9,2.1-0.9C54.3,128,54.8,128.1,55.2,128.4z M55.6,130.8c0-0.5-0.1-0.8-0.3-1.1c-0.3-0.5-0.8-0.8-1.4-0.8
		c-0.5,0-0.9,0.2-1.2,0.5s-0.5,0.8-0.5,1.3H55.6z"/>
	<path d="M62.2,128.5c0.4,0.3,0.7,0.9,0.8,1.8h-1c-0.1-0.4-0.2-0.7-0.4-1s-0.6-0.4-1.1-0.4c-0.7,0-1.2,0.3-1.4,1
		c-0.2,0.4-0.3,0.9-0.3,1.6c0,0.6,0.1,1.2,0.4,1.6s0.7,0.6,1.3,0.6c0.4,0,0.8-0.1,1-0.4s0.4-0.6,0.5-1.1h1c-0.1,0.8-0.4,1.4-0.9,1.8
		s-1.1,0.6-1.8,0.6c-0.8,0-1.5-0.3-2-0.9s-0.7-1.3-0.7-2.2c0-1.1,0.3-2,0.8-2.6s1.2-0.9,2-0.9C61.2,128,61.8,128.2,62.2,128.5z"/>
	<path d="M64.2,125.9h1.1v1.2h-1.1V125.9z M64.2,128.2h1.1v6.2h-1.1V128.2z"/>
	<path d="M67.6,132.5c0,0.4,0.1,0.6,0.3,0.8c0.3,0.3,0.7,0.5,1.4,0.5c0.4,0,0.7-0.1,1.1-0.3s0.5-0.4,0.5-0.8c0-0.3-0.1-0.5-0.4-0.6
		c-0.2-0.1-0.5-0.2-0.9-0.3l-0.9-0.2c-0.5-0.1-0.9-0.3-1.2-0.4c-0.5-0.3-0.7-0.7-0.7-1.2c0-0.6,0.2-1.1,0.7-1.4
		c0.4-0.4,1-0.6,1.7-0.6c1,0,1.6,0.3,2.1,0.8c0.3,0.4,0.4,0.7,0.4,1.1h-1c0-0.2-0.1-0.5-0.3-0.6c-0.2-0.3-0.7-0.4-1.3-0.4
		c-0.4,0-0.7,0.1-0.9,0.2s-0.3,0.4-0.3,0.6c0,0.3,0.1,0.5,0.4,0.7c0.2,0.1,0.4,0.2,0.7,0.3l0.7,0.2c0.8,0.2,1.3,0.4,1.6,0.5
		c0.4,0.3,0.6,0.7,0.6,1.3c0,0.6-0.2,1-0.6,1.4c-0.4,0.4-1.1,0.6-2,0.6c-0.9,0-1.6-0.2-2-0.6s-0.6-0.9-0.6-1.6H67.6z"/>
	<path d="M73.1,125.9h1.1v1.2h-1.1V125.9z M73.1,128.2h1.1v6.2h-1.1V128.2z"/>
	<path d="M80.5,128.8c0.6,0.5,0.8,1.3,0.8,2.4c0,1-0.2,1.8-0.7,2.5c-0.5,0.7-1.2,1-2.3,1c-0.9,0-1.5-0.3-2-0.9s-0.8-1.4-0.8-2.4
		c0-1.1,0.3-1.9,0.8-2.5c0.5-0.6,1.2-0.9,2.1-0.9C79.2,128,79.9,128.3,80.5,128.8z M79.8,133c0.3-0.5,0.4-1.1,0.4-1.8
		c0-0.6-0.1-1.1-0.3-1.4c-0.3-0.6-0.8-0.9-1.5-0.9c-0.6,0-1.1,0.2-1.4,0.7s-0.4,1.1-0.4,1.8c0,0.7,0.1,1.2,0.4,1.7s0.7,0.7,1.4,0.7
		C79.1,133.8,79.5,133.5,79.8,133z M79.7,125.7l-1.6,1.7h-0.8l1.1-1.7H79.7z"/>
	<path d="M82.7,128.2h1v0.9c0.3-0.4,0.6-0.6,0.9-0.8s0.7-0.2,1.1-0.2c0.9,0,1.5,0.3,1.8,0.9c0.2,0.3,0.3,0.8,0.3,1.5v4h-1.1v-4
		c0-0.4-0.1-0.7-0.2-0.9c-0.2-0.4-0.5-0.6-1-0.6c-0.2,0-0.5,0-0.6,0.1c-0.3,0.1-0.5,0.3-0.8,0.5c-0.2,0.2-0.3,0.4-0.3,0.6
		s-0.1,0.5-0.1,0.9v3.3h-1.1V128.2z"/>
</g>
<g>
	<path d="M43.8,218.4h3.9c0.8,0,1.4,0.2,1.8,0.6s0.7,1,0.7,1.8c0,0.7-0.2,1.3-0.6,1.8c-0.4,0.5-1.1,0.7-1.9,0.7H45v3.6h-1.2V218.4z
		 M48.4,219.5c-0.3-0.1-0.6-0.2-1.1-0.2H45v3h2.3c0.5,0,0.9-0.1,1.3-0.3s0.5-0.6,0.5-1.2C49.1,220.2,48.8,219.8,48.4,219.5z"/>
	<path d="M51.7,220.7h1v1.1c0.1-0.2,0.3-0.5,0.6-0.8s0.7-0.5,1.1-0.5c0,0,0.1,0,0.1,0s0.1,0,0.2,0v1.1c-0.1,0-0.1,0-0.2,0
		s-0.1,0-0.2,0c-0.5,0-0.9,0.2-1.2,0.5s-0.4,0.7-0.4,1.2v3.6h-1.1V220.7z"/>
	<path d="M60.4,221.3c0.6,0.5,0.8,1.3,0.8,2.4c0,1-0.2,1.8-0.7,2.5c-0.5,0.7-1.2,1-2.3,1c-0.9,0-1.5-0.3-2-0.9
		c-0.5-0.6-0.8-1.4-0.8-2.4c0-1.1,0.3-1.9,0.8-2.5c0.5-0.6,1.2-0.9,2.1-0.9C59.1,220.5,59.8,220.8,60.4,221.3z M59.7,225.5
		c0.3-0.5,0.4-1.1,0.4-1.8c0-0.6-0.1-1.1-0.3-1.4c-0.3-0.6-0.8-0.9-1.5-0.9c-0.6,0-1.1,0.2-1.4,0.7c-0.3,0.5-0.4,1.1-0.4,1.8
		c0,0.7,0.1,1.2,0.4,1.7c0.3,0.4,0.7,0.7,1.4,0.7C59,226.3,59.5,226,59.7,225.5z"/>
	<path d="M66.8,221c0.4,0.3,0.7,0.9,0.8,1.8h-1c-0.1-0.4-0.2-0.7-0.4-1s-0.6-0.4-1.1-0.4c-0.7,0-1.2,0.3-1.4,1
		c-0.2,0.4-0.3,1-0.3,1.6c0,0.6,0.1,1.2,0.4,1.6c0.3,0.4,0.7,0.6,1.3,0.6c0.4,0,0.8-0.1,1-0.4s0.4-0.6,0.5-1.1h1
		c-0.1,0.8-0.4,1.4-0.9,1.8s-1.1,0.6-1.8,0.6c-0.8,0-1.5-0.3-2-0.9s-0.7-1.3-0.7-2.2c0-1.1,0.3-2,0.8-2.6s1.2-0.9,2-0.9
		C65.7,220.5,66.3,220.7,66.8,221z"/>
	<path d="M72.6,220.9c0.4,0.2,0.7,0.5,0.9,0.8c0.2,0.3,0.3,0.7,0.4,1.1c0.1,0.3,0.1,0.8,0.1,1.4h-4.6c0,0.6,0.2,1.2,0.4,1.5
		c0.3,0.4,0.7,0.6,1.3,0.6c0.5,0,1-0.2,1.3-0.5c0.2-0.2,0.3-0.5,0.4-0.7h1c0,0.2-0.1,0.5-0.3,0.8s-0.3,0.5-0.5,0.7
		c-0.3,0.3-0.7,0.5-1.2,0.6c-0.3,0.1-0.5,0.1-0.9,0.1c-0.8,0-1.4-0.3-2-0.9c-0.5-0.6-0.8-1.4-0.8-2.4c0-1,0.3-1.8,0.8-2.5
		c0.5-0.6,1.3-0.9,2.1-0.9C71.8,220.5,72.2,220.6,72.6,220.9z M73,223.3c0-0.5-0.1-0.8-0.3-1.1c-0.3-0.5-0.8-0.8-1.4-0.8
		c-0.5,0-0.9,0.2-1.2,0.5s-0.5,0.8-0.5,1.3H73z"/>
	<path d="M76.2,225c0,0.4,0.1,0.6,0.3,0.8c0.3,0.3,0.7,0.5,1.4,0.5c0.4,0,0.7-0.1,1.1-0.3s0.5-0.4,0.5-0.8c0-0.3-0.1-0.5-0.4-0.6
		c-0.2-0.1-0.5-0.2-0.9-0.3l-0.9-0.2c-0.5-0.1-0.9-0.3-1.2-0.4c-0.5-0.3-0.7-0.7-0.7-1.2c0-0.6,0.2-1.1,0.7-1.4
		c0.4-0.4,1-0.6,1.7-0.6c1,0,1.6,0.3,2.1,0.8c0.3,0.4,0.4,0.7,0.4,1.1h-1c0-0.2-0.1-0.5-0.3-0.6c-0.2-0.3-0.7-0.4-1.3-0.4
		c-0.4,0-0.7,0.1-0.9,0.2c-0.2,0.2-0.3,0.4-0.3,0.6c0,0.3,0.1,0.5,0.4,0.7c0.2,0.1,0.4,0.2,0.7,0.3l0.7,0.2c0.8,0.2,1.3,0.4,1.6,0.5
		c0.4,0.3,0.6,0.7,0.6,1.3c0,0.6-0.2,1-0.6,1.4c-0.4,0.4-1.1,0.6-2,0.6c-0.9,0-1.6-0.2-2-0.6s-0.6-0.9-0.6-1.6H76.2z"/>
	<path d="M86.2,221.3c0.6,0.5,0.8,1.3,0.8,2.4c0,1-0.2,1.8-0.7,2.5c-0.5,0.7-1.2,1-2.3,1c-0.9,0-1.5-0.3-2-0.9
		c-0.5-0.6-0.8-1.4-0.8-2.4c0-1.1,0.3-1.9,0.8-2.5c0.5-0.6,1.2-0.9,2.1-0.9C85,220.5,85.6,220.8,86.2,221.3z M85.5,225.5
		c0.3-0.5,0.4-1.1,0.4-1.8c0-0.6-0.1-1.1-0.3-1.4c-0.3-0.6-0.8-0.9-1.5-0.9c-0.6,0-1.1,0.2-1.4,0.7c-0.3,0.5-0.4,1.1-0.4,1.8
		c0,0.7,0.1,1.2,0.4,1.7c0.3,0.4,0.7,0.7,1.4,0.7C84.8,226.3,85.3,226,85.5,225.5z"/>
	<path d="M35.6,235.1h1v0.8c0.2-0.3,0.4-0.5,0.7-0.7c0.4-0.2,0.8-0.4,1.3-0.4c0.7,0,1.3,0.3,1.8,0.8s0.7,1.3,0.7,2.3
		c0,1.4-0.4,2.3-1.1,2.9c-0.5,0.4-1,0.6-1.6,0.6c-0.5,0-0.9-0.1-1.2-0.3c-0.2-0.1-0.4-0.3-0.6-0.6v3.2h-1.1V235.1z M39.5,240
		c0.3-0.4,0.5-1,0.5-1.8c0-0.5-0.1-0.9-0.2-1.3c-0.3-0.7-0.8-1-1.5-1c-0.7,0-1.2,0.4-1.5,1.1c-0.1,0.4-0.2,0.9-0.2,1.5
		c0,0.5,0.1,0.9,0.2,1.2c0.3,0.6,0.8,1,1.5,1C38.8,240.7,39.2,240.4,39.5,240z"/>
	<path d="M42.5,235.1h1v1.1c0.1-0.2,0.3-0.5,0.6-0.8s0.7-0.5,1.1-0.5c0,0,0.1,0,0.1,0s0.1,0,0.2,0v1.1c-0.1,0-0.1,0-0.2,0
		s-0.1,0-0.2,0c-0.5,0-0.9,0.2-1.2,0.5s-0.4,0.7-0.4,1.2v3.6h-1.1V235.1z"/>
	<path d="M50.4,235.3c0.4,0.2,0.7,0.5,0.9,0.8c0.2,0.3,0.3,0.7,0.4,1.1c0.1,0.3,0.1,0.8,0.1,1.4h-4.6c0,0.6,0.2,1.2,0.4,1.5
		c0.3,0.4,0.7,0.6,1.3,0.6c0.5,0,1-0.2,1.3-0.5c0.2-0.2,0.3-0.5,0.4-0.7h1c0,0.2-0.1,0.5-0.3,0.8s-0.3,0.5-0.5,0.7
		c-0.3,0.3-0.7,0.5-1.2,0.6c-0.3,0.1-0.5,0.1-0.9,0.1c-0.8,0-1.4-0.3-2-0.9c-0.5-0.6-0.8-1.4-0.8-2.4c0-1,0.3-1.8,0.8-2.5
		c0.5-0.6,1.3-0.9,2.1-0.9C49.6,234.9,50,235,50.4,235.3z M50.8,237.7c0-0.5-0.1-0.8-0.3-1.1c-0.3-0.5-0.8-0.8-1.4-0.8
		c-0.5,0-0.9,0.2-1.2,0.5s-0.5,0.8-0.5,1.3H50.8z"/>
	<path d="M56.8,235.3c0.2,0.1,0.4,0.3,0.6,0.6v-3.2h1v8.6h-0.9v-0.9c-0.2,0.4-0.5,0.7-0.9,0.8c-0.3,0.2-0.7,0.3-1.1,0.3
		c-0.7,0-1.3-0.3-1.8-0.9s-0.8-1.4-0.8-2.3c0-0.9,0.2-1.7,0.7-2.4c0.5-0.7,1.1-1,2-1C56.1,235,56.5,235.1,56.8,235.3z M54.5,240
		c0.3,0.5,0.7,0.7,1.4,0.7c0.5,0,0.9-0.2,1.2-0.6s0.5-1,0.5-1.8c0-0.8-0.2-1.4-0.5-1.8s-0.7-0.6-1.2-0.6c-0.5,0-1,0.2-1.3,0.6
		c-0.3,0.4-0.5,1-0.5,1.8C54,239,54.2,239.5,54.5,240z"/>
	<path d="M64,235.3c0.4,0.2,0.7,0.5,0.9,0.8c0.2,0.3,0.3,0.7,0.4,1.1c0.1,0.3,0.1,0.8,0.1,1.4h-4.6c0,0.6,0.2,1.2,0.4,1.5
		c0.3,0.4,0.7,0.6,1.3,0.6c0.5,0,1-0.2,1.3-0.5c0.2-0.2,0.3-0.5,0.4-0.7h1c0,0.2-0.1,0.5-0.3,0.8s-0.3,0.5-0.5,0.7
		c-0.3,0.3-0.7,0.5-1.2,0.6c-0.3,0.1-0.5,0.1-0.9,0.1c-0.8,0-1.4-0.3-2-0.9c-0.5-0.6-0.8-1.4-0.8-2.4c0-1,0.3-1.8,0.8-2.5
		c0.5-0.6,1.3-0.9,2.1-0.9C63.2,234.9,63.6,235,64,235.3z M64.4,237.7c0-0.5-0.1-0.8-0.3-1.1c-0.3-0.5-0.8-0.8-1.4-0.8
		c-0.5,0-0.9,0.2-1.2,0.5s-0.5,0.8-0.5,1.3H64.4z"/>
	<path d="M67.4,233.2c0.2-0.4,0.7-0.5,1.4-0.5c0.1,0,0.1,0,0.2,0s0.2,0,0.2,0v1c-0.1,0-0.2,0-0.2,0c0,0-0.1,0-0.1,0
		c-0.3,0-0.5,0.1-0.6,0.2s-0.1,0.6-0.1,1.3h1.1v0.8h-1.1v5.4h-1v-5.4h-0.9v-0.8h0.9v-1C67.2,233.7,67.3,233.4,67.4,233.2z"/>
	<path d="M70.4,232.8h1.1v1.2h-1.1V232.8z M70.4,235.1h1.1v6.2h-1.1V235.1z"/>
	<path d="M73.2,235.1h1v0.9c0.3-0.4,0.6-0.6,0.9-0.8s0.7-0.2,1.1-0.2c0.9,0,1.5,0.3,1.8,0.9c0.2,0.3,0.3,0.8,0.3,1.5v4h-1.1v-4
		c0-0.4-0.1-0.7-0.2-0.9c-0.2-0.4-0.5-0.6-1-0.6c-0.2,0-0.5,0-0.6,0.1c-0.3,0.1-0.5,0.3-0.8,0.5c-0.2,0.2-0.3,0.4-0.3,0.6
		s-0.1,0.5-0.1,0.9v3.3h-1.1V235.1z"/>
	<path d="M80,232.8h1.1v1.2H80V232.8z M80,235.1h1.1v6.2H80V235.1z"/>
	<path d="M86.2,235.3c0.2,0.1,0.4,0.3,0.6,0.6v-3.2h1v8.6h-0.9v-0.9c-0.2,0.4-0.5,0.7-0.9,0.8c-0.3,0.2-0.7,0.3-1.1,0.3
		c-0.7,0-1.3-0.3-1.8-0.9s-0.8-1.4-0.8-2.3c0-0.9,0.2-1.7,0.7-2.4c0.5-0.7,1.1-1,2-1C85.5,235,85.9,235.1,86.2,235.3z M83.9,240
		c0.3,0.5,0.7,0.7,1.4,0.7c0.5,0,0.9-0.2,1.2-0.6s0.5-1,0.5-1.8c0-0.8-0.2-1.4-0.5-1.8s-0.7-0.6-1.2-0.6c-0.5,0-1,0.2-1.3,0.6
		c-0.3,0.4-0.5,1-0.5,1.8C83.4,239,83.6,239.5,83.9,240z"/>
	<path d="M94.1,235.7c0.6,0.5,0.8,1.3,0.8,2.4c0,1-0.2,1.8-0.7,2.5c-0.5,0.7-1.2,1-2.3,1c-0.9,0-1.5-0.3-2-0.9
		c-0.5-0.6-0.8-1.4-0.8-2.4c0-1.1,0.3-1.9,0.8-2.5c0.5-0.6,1.2-0.9,2.1-0.9C92.9,234.9,93.6,235.2,94.1,235.7z M93.5,239.9
		c0.3-0.5,0.4-1.1,0.4-1.8c0-0.6-0.1-1.1-0.3-1.4c-0.3-0.6-0.8-0.9-1.5-0.9c-0.6,0-1.1,0.2-1.4,0.7c-0.3,0.5-0.4,1.1-0.4,1.8
		c0,0.7,0.1,1.2,0.4,1.7c0.3,0.4,0.7,0.7,1.4,0.7C92.7,240.7,93.2,240.4,93.5,239.9z"/>
</g>
<g>
	<path d="M133.2,125.9h6.2v1.1h-5.1v2.6h4.7v1h-4.7v2.9h5.2v1h-6.3V125.9z"/>
	<path d="M141.1,128.2h1v0.9c0.3-0.4,0.6-0.6,0.9-0.8s0.7-0.2,1.1-0.2c0.9,0,1.5,0.3,1.8,0.9c0.2,0.3,0.3,0.8,0.3,1.5v4h-1.1v-4
		c0-0.4-0.1-0.7-0.2-0.9c-0.2-0.4-0.5-0.6-1-0.6c-0.2,0-0.5,0-0.6,0.1c-0.3,0.1-0.5,0.3-0.8,0.5c-0.2,0.2-0.3,0.4-0.3,0.6
		s-0.1,0.5-0.1,0.9v3.3h-1.1V128.2z"/>
	<path d="M148.1,126.4h1.1v1.8h1v0.9h-1v4.1c0,0.2,0.1,0.4,0.2,0.4c0.1,0,0.2,0.1,0.4,0.1c0.1,0,0.1,0,0.2,0s0.1,0,0.2,0v0.8
		c-0.1,0-0.2,0.1-0.4,0.1s-0.3,0-0.4,0c-0.5,0-0.8-0.1-1-0.4s-0.3-0.6-0.3-1V129h-0.8v-0.9h0.8V126.4z"/>
	<path d="M151.3,128.2h1v1.1c0.1-0.2,0.3-0.5,0.6-0.8s0.7-0.5,1.1-0.5c0,0,0.1,0,0.1,0s0.1,0,0.2,0v1.1c-0.1,0-0.1,0-0.2,0
		s-0.1,0-0.2,0c-0.5,0-0.9,0.2-1.2,0.5s-0.4,0.7-0.4,1.2v3.6h-1.1V128.2z"/>
	<path d="M158.8,130.7c0.2,0,0.4-0.1,0.5-0.3c0-0.1,0.1-0.2,0.1-0.4c0-0.4-0.1-0.6-0.4-0.8c-0.3-0.2-0.6-0.2-1.1-0.2
		c-0.5,0-0.9,0.1-1.2,0.4c-0.1,0.2-0.2,0.4-0.3,0.7h-1c0-0.8,0.3-1.3,0.8-1.6c0.5-0.3,1-0.5,1.7-0.5c0.7,0,1.3,0.1,1.8,0.4
		c0.5,0.3,0.7,0.7,0.7,1.3v3.6c0,0.1,0,0.2,0.1,0.3c0,0.1,0.1,0.1,0.3,0.1c0,0,0.1,0,0.2,0s0.1,0,0.2,0v0.8c-0.2,0-0.3,0.1-0.4,0.1
		s-0.2,0-0.4,0c-0.4,0-0.6-0.1-0.8-0.4c-0.1-0.1-0.1-0.3-0.2-0.6c-0.2,0.3-0.5,0.5-0.9,0.7s-0.8,0.3-1.3,0.3c-0.6,0-1.1-0.2-1.4-0.5
		s-0.6-0.8-0.6-1.3c0-0.6,0.2-1,0.5-1.4s0.8-0.5,1.4-0.6L158.8,130.7z M156.6,133.5c0.2,0.2,0.5,0.3,0.8,0.3c0.4,0,0.7-0.1,1.1-0.3
		c0.6-0.3,0.9-0.8,0.9-1.4v-0.8c-0.1,0.1-0.3,0.2-0.5,0.2c-0.2,0.1-0.4,0.1-0.6,0.1l-0.6,0.1c-0.4,0.1-0.7,0.1-0.9,0.2
		c-0.3,0.2-0.5,0.5-0.5,0.9C156.2,133.1,156.3,133.3,156.6,133.5z"/>
	<path d="M165.7,128.4c0.2,0.1,0.4,0.3,0.6,0.6v-3.2h1v8.6h-0.9v-0.9c-0.2,0.4-0.5,0.7-0.9,0.8c-0.3,0.2-0.7,0.3-1.1,0.3
		c-0.7,0-1.3-0.3-1.8-0.9s-0.8-1.4-0.8-2.3c0-0.9,0.2-1.7,0.7-2.4c0.5-0.7,1.1-1,2-1C164.9,128.1,165.3,128.2,165.7,128.4z
		 M163.3,133.1c0.3,0.5,0.7,0.7,1.4,0.7c0.5,0,0.9-0.2,1.2-0.6s0.5-1,0.5-1.8c0-0.8-0.2-1.4-0.5-1.8s-0.7-0.6-1.2-0.6
		c-0.5,0-1,0.2-1.3,0.6c-0.3,0.4-0.5,1-0.5,1.8C162.9,132.1,163,132.6,163.3,133.1z"/>
	<path d="M172.4,130.7c0.2,0,0.4-0.1,0.5-0.3c0-0.1,0.1-0.2,0.1-0.4c0-0.4-0.1-0.6-0.4-0.8c-0.3-0.2-0.6-0.2-1.1-0.2
		c-0.5,0-0.9,0.1-1.2,0.4c-0.1,0.2-0.2,0.4-0.3,0.7h-1c0-0.8,0.3-1.3,0.8-1.6c0.5-0.3,1-0.5,1.7-0.5c0.7,0,1.3,0.1,1.8,0.4
		c0.5,0.3,0.7,0.7,0.7,1.3v3.6c0,0.1,0,0.2,0.1,0.3c0,0.1,0.1,0.1,0.3,0.1c0,0,0.1,0,0.2,0s0.1,0,0.2,0v0.8c-0.2,0-0.3,0.1-0.4,0.1
		s-0.2,0-0.4,0c-0.4,0-0.6-0.1-0.8-0.4c-0.1-0.1-0.1-0.3-0.2-0.6c-0.2,0.3-0.5,0.5-0.9,0.7s-0.8,0.3-1.3,0.3c-0.6,0-1.1-0.2-1.4-0.5
		s-0.6-0.8-0.6-1.3c0-0.6,0.2-1,0.5-1.4s0.8-0.5,1.4-0.6L172.4,130.7z M170.1,133.5c0.2,0.2,0.5,0.3,0.8,0.3c0.4,0,0.7-0.1,1.1-0.3
		c0.6-0.3,0.9-0.8,0.9-1.4v-0.8c-0.1,0.1-0.3,0.2-0.5,0.2c-0.2,0.1-0.4,0.1-0.6,0.1l-0.6,0.1c-0.4,0.1-0.7,0.1-0.9,0.2
		c-0.3,0.2-0.5,0.5-0.5,0.9C169.8,133.1,169.9,133.3,170.1,133.5z"/>
	<path d="M181.2,125.9h0.9l-2.7,8.6h-0.9L181.2,125.9z"/>
	<path d="M187.1,131.7c0,0.5,0.1,0.9,0.3,1.2c0.4,0.6,1,0.9,2,0.9c0.4,0,0.8-0.1,1.2-0.2c0.7-0.2,1-0.7,1-1.3c0-0.5-0.1-0.8-0.4-1
		c-0.3-0.2-0.7-0.4-1.4-0.5l-1.1-0.3c-0.7-0.2-1.3-0.4-1.6-0.6c-0.5-0.4-0.8-0.9-0.8-1.6c0-0.8,0.3-1.4,0.8-1.9
		c0.5-0.5,1.3-0.7,2.2-0.7c0.9,0,1.6,0.2,2.2,0.7c0.6,0.4,0.9,1.1,0.9,2.1h-1.1c-0.1-0.5-0.2-0.8-0.4-1.1c-0.3-0.4-0.9-0.7-1.7-0.7
		c-0.7,0-1.1,0.1-1.4,0.4c-0.3,0.3-0.4,0.6-0.4,1c0,0.4,0.2,0.7,0.5,0.9c0.2,0.1,0.7,0.3,1.5,0.5l1.2,0.3c0.6,0.1,1,0.3,1.3,0.5
		c0.5,0.4,0.8,1,0.8,1.8c0,1-0.3,1.6-1,2s-1.5,0.6-2.4,0.6c-1,0-1.9-0.3-2.5-0.8c-0.6-0.5-0.9-1.3-0.9-2.2H187.1z"/>
	<path d="M197.6,130.7c0.2,0,0.4-0.1,0.5-0.3c0-0.1,0.1-0.2,0.1-0.4c0-0.4-0.1-0.6-0.4-0.8c-0.3-0.2-0.6-0.2-1.1-0.2
		c-0.5,0-0.9,0.1-1.2,0.4c-0.1,0.2-0.2,0.4-0.3,0.7h-1c0-0.8,0.3-1.3,0.8-1.6c0.5-0.3,1-0.5,1.7-0.5c0.7,0,1.3,0.1,1.8,0.4
		c0.5,0.3,0.7,0.7,0.7,1.3v3.6c0,0.1,0,0.2,0.1,0.3c0,0.1,0.1,0.1,0.3,0.1c0,0,0.1,0,0.2,0s0.1,0,0.2,0v0.8c-0.2,0-0.3,0.1-0.4,0.1
		s-0.2,0-0.4,0c-0.4,0-0.6-0.1-0.8-0.4c-0.1-0.1-0.1-0.3-0.2-0.6c-0.2,0.3-0.5,0.5-0.9,0.7s-0.8,0.3-1.3,0.3c-0.6,0-1.1-0.2-1.4-0.5
		s-0.6-0.8-0.6-1.3c0-0.6,0.2-1,0.5-1.4s0.8-0.5,1.4-0.6L197.6,130.7z M195.4,133.5c0.2,0.2,0.5,0.3,0.8,0.3c0.4,0,0.7-0.1,1.1-0.3
		c0.6-0.3,0.9-0.8,0.9-1.4v-0.8c-0.1,0.1-0.3,0.2-0.5,0.2c-0.2,0.1-0.4,0.1-0.6,0.1l-0.6,0.1c-0.4,0.1-0.7,0.1-0.9,0.2
		c-0.3,0.2-0.5,0.5-0.5,0.9C195.1,133.1,195.2,133.3,195.4,133.5z"/>
	<path d="M201.1,125.9h1.1v8.6h-1.1V125.9z"/>
	<path d="M203.9,125.9h1.1v1.2h-1.1V125.9z M203.9,128.2h1.1v6.2h-1.1V128.2z"/>
	<path d="M210.1,128.4c0.2,0.1,0.4,0.3,0.6,0.6v-3.2h1v8.6h-0.9v-0.9c-0.2,0.4-0.5,0.7-0.9,0.8c-0.3,0.2-0.7,0.3-1.1,0.3
		c-0.7,0-1.3-0.3-1.8-0.9s-0.8-1.4-0.8-2.3c0-0.9,0.2-1.7,0.7-2.4c0.5-0.7,1.1-1,2-1C209.4,128.1,209.8,128.2,210.1,128.4z
		 M207.7,133.1c0.3,0.5,0.7,0.7,1.4,0.7c0.5,0,0.9-0.2,1.2-0.6c0.3-0.4,0.5-1,0.5-1.8c0-0.8-0.2-1.4-0.5-1.8
		c-0.3-0.4-0.7-0.6-1.2-0.6c-0.5,0-1,0.2-1.3,0.6c-0.3,0.4-0.5,1-0.5,1.8C207.3,132.1,207.5,132.6,207.7,133.1z"/>
	<path d="M216.8,130.7c0.2,0,0.4-0.1,0.5-0.3c0-0.1,0.1-0.2,0.1-0.4c0-0.4-0.1-0.6-0.4-0.8c-0.3-0.2-0.6-0.2-1.1-0.2
		c-0.5,0-0.9,0.1-1.2,0.4c-0.1,0.2-0.2,0.4-0.3,0.7h-1c0-0.8,0.3-1.3,0.8-1.6c0.5-0.3,1-0.5,1.7-0.5c0.7,0,1.3,0.1,1.8,0.4
		c0.5,0.3,0.7,0.7,0.7,1.3v3.6c0,0.1,0,0.2,0.1,0.3c0,0.1,0.1,0.1,0.3,0.1c0,0,0.1,0,0.2,0s0.1,0,0.2,0v0.8c-0.2,0-0.3,0.1-0.4,0.1
		s-0.2,0-0.4,0c-0.4,0-0.6-0.1-0.8-0.4c-0.1-0.1-0.1-0.3-0.2-0.6c-0.2,0.3-0.5,0.5-0.9,0.7s-0.8,0.3-1.3,0.3c-0.6,0-1.1-0.2-1.4-0.5
		s-0.6-0.8-0.6-1.3c0-0.6,0.2-1,0.5-1.4s0.8-0.5,1.4-0.6L216.8,130.7z M214.6,133.5c0.2,0.2,0.5,0.3,0.8,0.3c0.4,0,0.7-0.1,1.1-0.3
		c0.6-0.3,0.9-0.8,0.9-1.4v-0.8c-0.1,0.1-0.3,0.2-0.5,0.2c-0.2,0.1-0.4,0.1-0.6,0.1l-0.6,0.1c-0.4,0.1-0.7,0.1-0.9,0.2
		c-0.3,0.2-0.5,0.5-0.5,0.9C214.3,133.1,214.4,133.3,214.6,133.5z"/>
</g>
<g>
	<path d="M148.8,232.8h3.9c0.8,0,1.4,0.2,1.8,0.6s0.7,1,0.7,1.8c0,0.7-0.2,1.3-0.6,1.8c-0.4,0.5-1.1,0.7-1.9,0.7H150v3.6h-1.2V232.8
		z M153.3,233.9c-0.3-0.1-0.6-0.2-1.1-0.2H150v3h2.3c0.5,0,0.9-0.1,1.3-0.3s0.5-0.6,0.5-1.2C154,234.6,153.8,234.2,153.3,233.9z"/>
	<path d="M156.7,235.1h1v1.1c0.1-0.2,0.3-0.5,0.6-0.8s0.7-0.5,1.1-0.5c0,0,0.1,0,0.1,0s0.1,0,0.2,0v1.1c-0.1,0-0.1,0-0.2,0
		s-0.1,0-0.2,0c-0.5,0-0.9,0.2-1.2,0.5s-0.4,0.7-0.4,1.2v3.6h-1.1V235.1z"/>
	<path d="M164.7,235.3c0.4,0.2,0.7,0.5,0.9,0.8c0.2,0.3,0.3,0.7,0.4,1.1c0.1,0.3,0.1,0.8,0.1,1.4h-4.6c0,0.6,0.2,1.2,0.4,1.5
		c0.3,0.4,0.7,0.6,1.3,0.6c0.5,0,1-0.2,1.3-0.5c0.2-0.2,0.3-0.5,0.4-0.7h1c0,0.2-0.1,0.5-0.3,0.8s-0.3,0.5-0.5,0.7
		c-0.3,0.3-0.7,0.5-1.2,0.6c-0.3,0.1-0.5,0.1-0.9,0.1c-0.8,0-1.4-0.3-2-0.9c-0.5-0.6-0.8-1.4-0.8-2.4c0-1,0.3-1.8,0.8-2.5
		c0.5-0.6,1.3-0.9,2.1-0.9C163.8,234.9,164.3,235,164.7,235.3z M165.1,237.7c0-0.5-0.1-0.8-0.3-1.1c-0.3-0.5-0.8-0.8-1.4-0.8
		c-0.5,0-0.9,0.2-1.2,0.5s-0.5,0.8-0.5,1.3H165.1z"/>
	<path d="M167.5,235.1h1v0.8c0.2-0.3,0.4-0.5,0.7-0.7c0.4-0.2,0.8-0.4,1.3-0.4c0.7,0,1.3,0.3,1.8,0.8s0.7,1.3,0.7,2.3
		c0,1.4-0.4,2.3-1.1,2.9c-0.5,0.4-1,0.6-1.6,0.6c-0.5,0-0.9-0.1-1.2-0.3c-0.2-0.1-0.4-0.3-0.6-0.6v3.2h-1.1V235.1z M171.5,240
		c0.3-0.4,0.5-1,0.5-1.8c0-0.5-0.1-0.9-0.2-1.3c-0.3-0.7-0.8-1-1.5-1c-0.7,0-1.2,0.4-1.5,1.1c-0.1,0.4-0.2,0.9-0.2,1.5
		c0,0.5,0.1,0.9,0.2,1.2c0.3,0.6,0.8,1,1.5,1C170.7,240.6,171.2,240.4,171.5,240z"/>
	<path d="M177.8,237.6c0.2,0,0.4-0.1,0.5-0.3c0-0.1,0.1-0.2,0.1-0.4c0-0.4-0.1-0.6-0.4-0.8c-0.3-0.2-0.6-0.2-1.1-0.2
		c-0.5,0-0.9,0.1-1.2,0.4c-0.1,0.2-0.2,0.4-0.3,0.7h-1c0-0.8,0.3-1.3,0.8-1.6c0.5-0.3,1-0.5,1.7-0.5c0.7,0,1.3,0.1,1.8,0.4
		c0.5,0.3,0.7,0.7,0.7,1.3v3.6c0,0.1,0,0.2,0.1,0.3c0,0.1,0.1,0.1,0.3,0.1c0,0,0.1,0,0.2,0s0.1,0,0.2,0v0.8c-0.2,0-0.3,0.1-0.4,0.1
		s-0.2,0-0.4,0c-0.4,0-0.6-0.1-0.8-0.4c-0.1-0.1-0.1-0.3-0.2-0.6c-0.2,0.3-0.5,0.5-0.9,0.7s-0.8,0.3-1.3,0.3c-0.6,0-1.1-0.2-1.4-0.5
		c-0.4-0.4-0.6-0.8-0.6-1.3c0-0.6,0.2-1,0.5-1.4c0.4-0.3,0.8-0.5,1.4-0.6L177.8,237.6z M175.5,240.4c0.2,0.2,0.5,0.3,0.8,0.3
		c0.4,0,0.7-0.1,1.1-0.3c0.6-0.3,0.9-0.8,0.9-1.4v-0.8c-0.1,0.1-0.3,0.2-0.5,0.2s-0.4,0.1-0.6,0.1l-0.6,0.1
		c-0.4,0.1-0.7,0.1-0.9,0.2c-0.3,0.2-0.5,0.5-0.5,0.9C175.2,240,175.3,240.2,175.5,240.4z"/>
	<path d="M181.2,235.1h1v1.1c0.1-0.2,0.3-0.5,0.6-0.8s0.7-0.5,1.1-0.5c0,0,0.1,0,0.1,0s0.1,0,0.2,0v1.1c-0.1,0-0.1,0-0.2,0
		s-0.1,0-0.2,0c-0.5,0-0.9,0.2-1.2,0.5s-0.4,0.7-0.4,1.2v3.6h-1.1V235.1z"/>
	<path d="M188.7,237.6c0.2,0,0.4-0.1,0.5-0.3c0-0.1,0.1-0.2,0.1-0.4c0-0.4-0.1-0.6-0.4-0.8c-0.3-0.2-0.6-0.2-1.1-0.2
		c-0.5,0-0.9,0.1-1.2,0.4c-0.1,0.2-0.2,0.4-0.3,0.7h-1c0-0.8,0.3-1.3,0.8-1.6c0.5-0.3,1-0.5,1.7-0.5c0.7,0,1.3,0.1,1.8,0.4
		c0.5,0.3,0.7,0.7,0.7,1.3v3.6c0,0.1,0,0.2,0.1,0.3c0,0.1,0.1,0.1,0.3,0.1c0,0,0.1,0,0.2,0s0.1,0,0.2,0v0.8c-0.2,0-0.3,0.1-0.4,0.1
		s-0.2,0-0.4,0c-0.4,0-0.6-0.1-0.8-0.4c-0.1-0.1-0.1-0.3-0.2-0.6c-0.2,0.3-0.5,0.5-0.9,0.7s-0.8,0.3-1.3,0.3c-0.6,0-1.1-0.2-1.4-0.5
		c-0.4-0.4-0.6-0.8-0.6-1.3c0-0.6,0.2-1,0.5-1.4c0.4-0.3,0.8-0.5,1.4-0.6L188.7,237.6z M186.5,240.4c0.2,0.2,0.5,0.3,0.8,0.3
		c0.4,0,0.7-0.1,1.1-0.3c0.6-0.3,0.9-0.8,0.9-1.4v-0.8c-0.1,0.1-0.3,0.2-0.5,0.2s-0.4,0.1-0.6,0.1l-0.6,0.1
		c-0.4,0.1-0.7,0.1-0.9,0.2c-0.3,0.2-0.5,0.5-0.5,0.9C186.1,240,186.2,240.2,186.5,240.4z"/>
	<path d="M196.2,235.4c0.4,0.3,0.7,0.9,0.8,1.8h-1c-0.1-0.4-0.2-0.7-0.4-1s-0.6-0.4-1.1-0.4c-0.7,0-1.2,0.3-1.4,1
		c-0.2,0.4-0.3,1-0.3,1.6c0,0.6,0.1,1.2,0.4,1.6c0.3,0.4,0.7,0.6,1.3,0.6c0.4,0,0.8-0.1,1-0.4s0.4-0.6,0.5-1.1h1
		c-0.1,0.8-0.4,1.4-0.9,1.8s-1.1,0.6-1.8,0.6c-0.8,0-1.5-0.3-2-0.9s-0.7-1.3-0.7-2.2c0-1.1,0.3-2,0.8-2.6s1.2-0.9,2-0.9
		C195.2,234.9,195.8,235.1,196.2,235.4z"/>
	<path d="M198.2,232.8h1.1v1.2h-1.1V232.8z M198.2,235.1h1.1v6.2h-1.1V235.1z"/>
	<path d="M205.6,235.7c0.6,0.5,0.8,1.3,0.8,2.4c0,1-0.2,1.8-0.7,2.5c-0.5,0.7-1.2,1-2.3,1c-0.9,0-1.5-0.3-2-0.9
		c-0.5-0.6-0.8-1.4-0.8-2.4c0-1.1,0.3-1.9,0.8-2.5c0.5-0.6,1.2-0.9,2.1-0.9C204.3,234.9,205,235.2,205.6,235.7z M204.9,239.9
		c0.3-0.5,0.4-1.1,0.4-1.8c0-0.6-0.1-1.1-0.3-1.4c-0.3-0.6-0.8-0.9-1.5-0.9c-0.6,0-1.1,0.2-1.4,0.7c-0.3,0.5-0.4,1.1-0.4,1.8
		c0,0.7,0.1,1.2,0.4,1.7c0.3,0.4,0.8,0.7,1.4,0.7C204.2,240.7,204.6,240.4,204.9,239.9z M204.8,232.6l-1.6,1.7h-0.8l1.1-1.7H204.8z"
		/>
	<path d="M207.8,235.1h1v0.9c0.3-0.4,0.6-0.6,0.9-0.8s0.7-0.2,1.1-0.2c0.9,0,1.5,0.3,1.8,0.9c0.2,0.3,0.3,0.8,0.3,1.5v4h-1.1v-4
		c0-0.4-0.1-0.7-0.2-0.9c-0.2-0.4-0.5-0.6-1-0.6c-0.2,0-0.5,0-0.6,0.1c-0.3,0.1-0.5,0.3-0.8,0.5c-0.2,0.2-0.3,0.4-0.3,0.6
		s-0.1,0.5-0.1,0.9v3.3h-1.1V235.1z"/>
</g>
<g>
	<path d="M253,219c0.6,0.6,0.9,1.2,1,2h-1.1c-0.1-0.6-0.4-1-0.8-1.3c-0.4-0.3-0.9-0.5-1.6-0.5c-0.8,0-1.5,0.3-2,0.9
		c-0.5,0.6-0.8,1.5-0.8,2.7c0,1,0.2,1.8,0.7,2.5c0.5,0.6,1.2,0.9,2.1,0.9c0.8,0,1.5-0.3,1.9-1c0.2-0.3,0.4-0.8,0.5-1.4h1.1
		c-0.1,0.9-0.4,1.7-1,2.3c-0.7,0.7-1.6,1.1-2.7,1.1c-1,0-1.8-0.3-2.5-0.9c-0.9-0.8-1.3-2-1.3-3.7c0-1.3,0.3-2.3,1-3.1
		c0.7-0.9,1.7-1.3,3-1.3C251.6,218.1,252.4,218.4,253,219z"/>
	<path d="M260.1,221.3c0.6,0.5,0.8,1.3,0.8,2.4c0,1-0.2,1.8-0.7,2.5c-0.5,0.7-1.2,1-2.3,1c-0.9,0-1.5-0.3-2-0.9
		c-0.5-0.6-0.8-1.4-0.8-2.4c0-1.1,0.3-1.9,0.8-2.5c0.5-0.6,1.2-0.9,2.1-0.9C258.9,220.5,259.6,220.8,260.1,221.3z M259.5,225.5
		c0.3-0.5,0.4-1.1,0.4-1.8c0-0.6-0.1-1.1-0.3-1.4c-0.3-0.6-0.8-0.9-1.5-0.9c-0.6,0-1.1,0.2-1.4,0.7c-0.3,0.5-0.4,1.1-0.4,1.8
		c0,0.7,0.1,1.2,0.4,1.7c0.3,0.4,0.8,0.7,1.4,0.7C258.8,226.3,259.2,226,259.5,225.5z"/>
	<path d="M262.4,220.7h1v0.9c0.3-0.4,0.6-0.6,0.9-0.8s0.7-0.2,1.1-0.2c0.9,0,1.5,0.3,1.8,0.9c0.2,0.3,0.3,0.8,0.3,1.5v4h-1.1v-4
		c0-0.4-0.1-0.7-0.2-0.9c-0.2-0.4-0.5-0.6-1-0.6c-0.2,0-0.5,0-0.6,0.1c-0.3,0.1-0.5,0.3-0.8,0.5c-0.2,0.2-0.3,0.4-0.3,0.6
		s-0.1,0.5-0.1,0.9v3.3h-1.1V220.7z"/>
	<path d="M273.1,220.9c0.4,0.2,0.7,0.5,0.9,0.8c0.2,0.3,0.3,0.7,0.4,1.1c0.1,0.3,0.1,0.8,0.1,1.4H270c0,0.6,0.2,1.2,0.4,1.5
		c0.3,0.4,0.7,0.6,1.3,0.6c0.5,0,1-0.2,1.3-0.5c0.2-0.2,0.3-0.5,0.4-0.7h1c0,0.2-0.1,0.5-0.3,0.8s-0.3,0.5-0.5,0.7
		c-0.3,0.3-0.7,0.5-1.2,0.6c-0.3,0.1-0.5,0.1-0.9,0.1c-0.8,0-1.4-0.3-2-0.9c-0.5-0.6-0.8-1.4-0.8-2.4c0-1,0.3-1.8,0.8-2.5
		c0.5-0.6,1.3-0.9,2.1-0.9C272.2,220.5,272.6,220.6,273.1,220.9z M273.4,223.3c0-0.5-0.1-0.8-0.3-1.1c-0.3-0.5-0.8-0.8-1.4-0.8
		c-0.5,0-0.9,0.2-1.2,0.5c-0.3,0.3-0.5,0.8-0.5,1.3H273.4z"/>
	<path d="M280.1,221c0.4,0.3,0.7,0.9,0.8,1.8h-1c-0.1-0.4-0.2-0.7-0.4-1s-0.6-0.4-1.1-0.4c-0.7,0-1.2,0.3-1.4,1
		c-0.2,0.4-0.3,1-0.3,1.6c0,0.6,0.1,1.2,0.4,1.6c0.3,0.4,0.7,0.6,1.3,0.6c0.4,0,0.8-0.1,1-0.4s0.4-0.6,0.5-1.1h1
		c-0.1,0.8-0.4,1.4-0.9,1.8s-1.1,0.6-1.8,0.6c-0.8,0-1.5-0.3-2-0.9s-0.7-1.3-0.7-2.2c0-1.1,0.3-2,0.8-2.6s1.2-0.9,2-0.9
		C279.1,220.5,279.7,220.7,280.1,221z"/>
	<path d="M282.3,218.9h1.1v1.8h1v0.9h-1v4.1c0,0.2,0.1,0.4,0.2,0.4c0.1,0,0.2,0.1,0.4,0.1c0.1,0,0.1,0,0.2,0c0.1,0,0.1,0,0.2,0v0.8
		c-0.1,0-0.2,0.1-0.4,0.1s-0.3,0-0.4,0c-0.5,0-0.8-0.1-1-0.4s-0.3-0.6-0.3-1v-4.2h-0.8v-0.9h0.8V218.9z"/>
	<path d="M290.1,221.3c0.6,0.5,0.8,1.3,0.8,2.4c0,1-0.2,1.8-0.7,2.5c-0.5,0.7-1.2,1-2.3,1c-0.9,0-1.5-0.3-2-0.9
		c-0.5-0.6-0.8-1.4-0.8-2.4c0-1.1,0.3-1.9,0.8-2.5c0.5-0.6,1.2-0.9,2.1-0.9C288.9,220.5,289.5,220.8,290.1,221.3z M289.4,225.5
		c0.3-0.5,0.4-1.1,0.4-1.8c0-0.6-0.1-1.1-0.3-1.4c-0.3-0.6-0.8-0.9-1.5-0.9c-0.6,0-1.1,0.2-1.4,0.7c-0.3,0.5-0.4,1.1-0.4,1.8
		c0,0.7,0.1,1.2,0.4,1.7c0.3,0.4,0.7,0.7,1.4,0.7C288.7,226.3,289.2,226,289.4,225.5z"/>
	<path d="M292.4,220.7h1v1.1c0.1-0.2,0.3-0.5,0.6-0.8s0.7-0.5,1.1-0.5c0,0,0.1,0,0.1,0s0.1,0,0.2,0v1.1c-0.1,0-0.1,0-0.2,0
		s-0.1,0-0.2,0c-0.5,0-0.9,0.2-1.2,0.5s-0.4,0.7-0.4,1.2v3.6h-1.1V220.7z"/>
	<path d="M300.4,218.8c0.2-0.4,0.7-0.5,1.4-0.5c0.1,0,0.1,0,0.2,0s0.2,0,0.2,0v1c-0.1,0-0.2,0-0.2,0s-0.1,0-0.1,0
		c-0.3,0-0.5,0.1-0.6,0.2c-0.1,0.2-0.1,0.6-0.1,1.3h1.1v0.8h-1.1v5.4h-1v-5.4h-0.9v-0.8h0.9v-1C300.2,219.3,300.3,219,300.4,218.8z"
		/>
	<path d="M304.4,220.7v4.2c0,0.3,0,0.6,0.1,0.8c0.2,0.4,0.5,0.6,1,0.6c0.7,0,1.2-0.3,1.5-1c0.1-0.4,0.2-0.8,0.2-1.4v-3.1h1.1v6.3h-1
		l0-0.9c-0.1,0.2-0.3,0.4-0.5,0.6c-0.4,0.3-0.9,0.5-1.4,0.5c-0.9,0-1.5-0.3-1.8-0.9c-0.2-0.3-0.3-0.7-0.3-1.3v-4.3H304.4z"/>
	<path d="M314,220.9c0.4,0.2,0.7,0.5,0.9,0.8c0.2,0.3,0.3,0.7,0.4,1.1c0.1,0.3,0.1,0.8,0.1,1.4h-4.6c0,0.6,0.2,1.2,0.4,1.5
		s0.7,0.6,1.3,0.6c0.5,0,1-0.2,1.3-0.5c0.2-0.2,0.3-0.5,0.4-0.7h1c0,0.2-0.1,0.5-0.3,0.8s-0.3,0.5-0.5,0.7c-0.3,0.3-0.7,0.5-1.2,0.6
		c-0.3,0.1-0.5,0.1-0.9,0.1c-0.8,0-1.4-0.3-2-0.9s-0.8-1.4-0.8-2.4c0-1,0.3-1.8,0.8-2.5s1.3-0.9,2.1-0.9
		C313.2,220.5,313.6,220.6,314,220.9z M314.4,223.3c0-0.5-0.1-0.8-0.3-1.1c-0.3-0.5-0.8-0.8-1.4-0.8c-0.5,0-0.9,0.2-1.2,0.5
		c-0.3,0.3-0.5,0.8-0.5,1.3H314.4z"/>
	<path d="M317,220.7h1v1.1c0.1-0.2,0.3-0.5,0.6-0.8s0.7-0.5,1.1-0.5c0,0,0.1,0,0.1,0s0.1,0,0.2,0v1.1c-0.1,0-0.1,0-0.2,0
		s-0.1,0-0.2,0c-0.5,0-0.9,0.2-1.2,0.5s-0.4,0.7-0.4,1.2v3.6H317V220.7z"/>
	<path d="M324.4,223.2c0.2,0,0.4-0.1,0.5-0.3c0-0.1,0.1-0.2,0.1-0.4c0-0.4-0.1-0.6-0.4-0.8c-0.3-0.2-0.6-0.2-1.1-0.2
		c-0.5,0-0.9,0.1-1.2,0.4c-0.1,0.2-0.2,0.4-0.3,0.7h-1c0-0.8,0.3-1.3,0.8-1.6c0.5-0.3,1-0.5,1.7-0.5c0.7,0,1.3,0.1,1.8,0.4
		c0.5,0.3,0.7,0.7,0.7,1.3v3.6c0,0.1,0,0.2,0.1,0.3c0,0.1,0.1,0.1,0.3,0.1c0,0,0.1,0,0.2,0s0.1,0,0.2,0v0.8c-0.2,0-0.3,0.1-0.4,0.1
		s-0.2,0-0.4,0c-0.4,0-0.6-0.1-0.8-0.4c-0.1-0.1-0.1-0.3-0.2-0.6c-0.2,0.3-0.5,0.5-0.9,0.7s-0.8,0.3-1.3,0.3c-0.6,0-1.1-0.2-1.4-0.5
		c-0.4-0.4-0.6-0.8-0.6-1.3c0-0.6,0.2-1,0.5-1.4c0.4-0.3,0.8-0.5,1.4-0.6L324.4,223.2z M322.2,226c0.2,0.2,0.5,0.3,0.8,0.3
		c0.4,0,0.7-0.1,1.1-0.3c0.6-0.3,0.9-0.8,0.9-1.4v-0.8c-0.1,0.1-0.3,0.2-0.5,0.2s-0.4,0.1-0.6,0.1l-0.6,0.1
		c-0.4,0.1-0.7,0.1-0.9,0.2c-0.3,0.2-0.5,0.5-0.5,0.9C321.9,225.6,322,225.8,322.2,226z"/>
	<path d="M263.9,235.3c0.2,0.1,0.4,0.3,0.6,0.6v-3.2h1v8.6h-0.9v-0.9c-0.2,0.4-0.5,0.7-0.9,0.8s-0.7,0.3-1.1,0.3
		c-0.7,0-1.3-0.3-1.8-0.9s-0.8-1.4-0.8-2.3c0-0.9,0.2-1.7,0.7-2.4s1.1-1,2-1C263.2,235,263.6,235.1,263.9,235.3z M261.5,240
		c0.3,0.5,0.7,0.7,1.4,0.7c0.5,0,0.9-0.2,1.2-0.6s0.5-1,0.5-1.8c0-0.8-0.2-1.4-0.5-1.8s-0.7-0.6-1.2-0.6c-0.5,0-1,0.2-1.3,0.6
		s-0.5,1-0.5,1.8C261.1,239,261.2,239.5,261.5,240z"/>
	<path d="M271.1,235.3c0.4,0.2,0.7,0.5,0.9,0.8c0.2,0.3,0.3,0.7,0.4,1.1c0.1,0.3,0.1,0.8,0.1,1.4H268c0,0.6,0.2,1.2,0.4,1.5
		c0.3,0.4,0.7,0.6,1.3,0.6c0.5,0,1-0.2,1.3-0.5c0.2-0.2,0.3-0.5,0.4-0.7h1c0,0.2-0.1,0.5-0.3,0.8s-0.3,0.5-0.5,0.7
		c-0.3,0.3-0.7,0.5-1.2,0.6c-0.3,0.1-0.5,0.1-0.9,0.1c-0.8,0-1.4-0.3-2-0.9c-0.5-0.6-0.8-1.4-0.8-2.4c0-1,0.3-1.8,0.8-2.5
		c0.5-0.6,1.3-0.9,2.1-0.9C270.3,234.9,270.7,235,271.1,235.3z M271.5,237.7c0-0.5-0.1-0.8-0.3-1.1c-0.3-0.5-0.8-0.8-1.4-0.8
		c-0.5,0-0.9,0.2-1.2,0.5s-0.5,0.8-0.5,1.3H271.5z"/>
	<path d="M277.4,235.1h1v0.8c0.2-0.3,0.4-0.5,0.7-0.7c0.4-0.2,0.8-0.4,1.3-0.4c0.7,0,1.3,0.3,1.8,0.8s0.7,1.3,0.7,2.3
		c0,1.4-0.4,2.3-1.1,2.9c-0.5,0.4-1,0.6-1.6,0.6c-0.5,0-0.9-0.1-1.2-0.3c-0.2-0.1-0.4-0.3-0.6-0.6v3.2h-1.1V235.1z M281.4,240
		c0.3-0.4,0.5-1,0.5-1.8c0-0.5-0.1-0.9-0.2-1.3c-0.3-0.7-0.8-1-1.5-1c-0.7,0-1.2,0.4-1.5,1.1c-0.1,0.4-0.2,0.9-0.2,1.5
		c0,0.5,0.1,0.9,0.2,1.2c0.3,0.6,0.8,1,1.5,1C280.6,240.7,281,240.4,281.4,240z"/>
	<path d="M287.6,237.6c0.2,0,0.4-0.1,0.5-0.3c0-0.1,0.1-0.2,0.1-0.4c0-0.4-0.1-0.6-0.4-0.8c-0.3-0.2-0.6-0.2-1.1-0.2
		c-0.5,0-0.9,0.1-1.2,0.4c-0.1,0.2-0.2,0.4-0.3,0.7h-1c0-0.8,0.3-1.3,0.8-1.6s1-0.5,1.7-0.5c0.7,0,1.3,0.1,1.8,0.4
		c0.5,0.3,0.7,0.7,0.7,1.3v3.6c0,0.1,0,0.2,0.1,0.3s0.1,0.1,0.3,0.1c0,0,0.1,0,0.2,0s0.1,0,0.2,0v0.8c-0.2,0-0.3,0.1-0.4,0.1
		s-0.2,0-0.4,0c-0.4,0-0.6-0.1-0.8-0.4c-0.1-0.1-0.1-0.3-0.2-0.6c-0.2,0.3-0.5,0.5-0.9,0.7s-0.8,0.3-1.3,0.3c-0.6,0-1.1-0.2-1.4-0.5
		c-0.4-0.4-0.6-0.8-0.6-1.3c0-0.6,0.2-1,0.5-1.4c0.4-0.3,0.8-0.5,1.4-0.6L287.6,237.6z M285.4,240.4c0.2,0.2,0.5,0.3,0.8,0.3
		c0.4,0,0.7-0.1,1.1-0.3c0.6-0.3,0.9-0.8,0.9-1.4v-0.8c-0.1,0.1-0.3,0.2-0.5,0.2c-0.2,0.1-0.4,0.1-0.6,0.1l-0.6,0.1
		c-0.4,0.1-0.7,0.1-0.9,0.2c-0.3,0.2-0.5,0.5-0.5,0.9C285.1,240,285.2,240.2,285.4,240.4z M288.1,232.6l-1.6,1.7h-0.8l1.1-1.7H288.1
		z"/>
	<path d="M294.6,235.3c0.2,0.1,0.4,0.3,0.6,0.6v-0.8h1v5.7c0,0.8-0.1,1.4-0.4,1.9c-0.4,0.9-1.3,1.3-2.5,1.3c-0.7,0-1.2-0.2-1.7-0.5
		c-0.5-0.3-0.7-0.8-0.8-1.4h1.1c0.1,0.3,0.2,0.5,0.3,0.7c0.2,0.2,0.6,0.4,1.1,0.4c0.8,0,1.3-0.3,1.6-0.9c0.1-0.3,0.2-0.9,0.2-1.8
		c-0.2,0.3-0.5,0.6-0.8,0.7s-0.7,0.2-1.2,0.2c-0.7,0-1.3-0.2-1.8-0.7s-0.8-1.3-0.8-2.4c0-1.1,0.3-1.9,0.8-2.5s1.1-0.9,1.9-0.9
		C293.8,235,294.2,235.1,294.6,235.3z M294.7,236.5c-0.3-0.4-0.7-0.6-1.2-0.6c-0.7,0-1.2,0.3-1.5,1c-0.1,0.4-0.2,0.9-0.2,1.5
		c0,0.7,0.1,1.2,0.4,1.6c0.3,0.4,0.7,0.6,1.2,0.6c0.8,0,1.3-0.3,1.6-1c0.2-0.4,0.3-0.8,0.3-1.4C295.2,237.4,295,236.8,294.7,236.5z"
		/>
	<path d="M297.9,232.8h1.1v1.2h-1.1V232.8z M297.9,235.1h1.1v6.2h-1.1V235.1z"/>
	<path d="M300.6,235.1h1v0.9c0.3-0.4,0.6-0.6,0.9-0.8s0.7-0.2,1.1-0.2c0.9,0,1.5,0.3,1.8,0.9c0.2,0.3,0.3,0.8,0.3,1.5v4h-1.1v-4
		c0-0.4-0.1-0.7-0.2-0.9c-0.2-0.4-0.5-0.6-1-0.6c-0.2,0-0.5,0-0.6,0.1c-0.3,0.1-0.5,0.3-0.8,0.5c-0.2,0.2-0.3,0.4-0.3,0.6
		s-0.1,0.5-0.1,0.9v3.3h-1.1V235.1z"/>
	<path d="M310.8,237.6c0.2,0,0.4-0.1,0.5-0.3c0-0.1,0.1-0.2,0.1-0.4c0-0.4-0.1-0.6-0.4-0.8c-0.3-0.2-0.6-0.2-1.1-0.2
		c-0.6,0-0.9,0.1-1.2,0.4c-0.1,0.2-0.2,0.4-0.3,0.7h-1c0-0.8,0.3-1.3,0.8-1.6c0.5-0.3,1-0.5,1.7-0.5c0.7,0,1.3,0.1,1.8,0.4
		c0.5,0.3,0.7,0.7,0.7,1.3v3.6c0,0.1,0,0.2,0.1,0.3s0.1,0.1,0.3,0.1c0,0,0.1,0,0.2,0s0.1,0,0.2,0v0.8c-0.2,0-0.3,0.1-0.4,0.1
		s-0.2,0-0.4,0c-0.4,0-0.6-0.1-0.8-0.4c-0.1-0.1-0.1-0.3-0.2-0.6c-0.2,0.3-0.5,0.5-0.9,0.7s-0.8,0.3-1.3,0.3c-0.6,0-1.1-0.2-1.4-0.5
		c-0.4-0.4-0.6-0.8-0.6-1.3c0-0.6,0.2-1,0.5-1.4c0.4-0.3,0.8-0.5,1.4-0.6L310.8,237.6z M308.6,240.4c0.2,0.2,0.5,0.3,0.8,0.3
		c0.4,0,0.7-0.1,1.1-0.3c0.6-0.3,0.9-0.8,0.9-1.4v-0.8c-0.1,0.1-0.3,0.2-0.5,0.2c-0.2,0.1-0.4,0.1-0.6,0.1l-0.6,0.1
		c-0.4,0.1-0.7,0.1-0.9,0.2c-0.3,0.2-0.5,0.5-0.5,0.9C308.2,240,308.4,240.2,308.6,240.4z"/>
</g>
<g>
	<path d="M256.3,125.9h3.4c1.2,0,2.1,0.4,2.7,1.3c0.6,0.8,0.9,1.7,0.9,2.9c0,0.9-0.2,1.7-0.5,2.5c-0.6,1.3-1.6,2-3.1,2h-3.4V125.9z
		 M259.5,133.5c0.4,0,0.7,0,1-0.1c0.4-0.2,0.8-0.4,1.1-0.9c0.2-0.3,0.4-0.8,0.5-1.3c0.1-0.3,0.1-0.6,0.1-0.9c0-1.1-0.2-1.9-0.6-2.5
		s-1.1-0.9-2-0.9h-2v6.6H259.5z"/>
	<path d="M269.4,128.8c0.6,0.5,0.8,1.3,0.8,2.4c0,1-0.2,1.8-0.7,2.5s-1.2,1-2.3,1c-0.9,0-1.5-0.3-2-0.9s-0.8-1.4-0.8-2.4
		c0-1.1,0.3-1.9,0.8-2.5c0.5-0.6,1.2-0.9,2.1-0.9C268.2,128,268.9,128.3,269.4,128.8z M268.8,133c0.3-0.5,0.4-1.1,0.4-1.8
		c0-0.6-0.1-1.1-0.3-1.4c-0.3-0.6-0.8-0.9-1.5-0.9c-0.6,0-1.1,0.2-1.4,0.7c-0.3,0.5-0.4,1.1-0.4,1.8c0,0.7,0.1,1.2,0.4,1.7
		c0.3,0.4,0.7,0.7,1.4,0.7C268.1,133.8,268.5,133.5,268.8,133z"/>
	<path d="M275.8,128.5c0.4,0.3,0.7,0.9,0.8,1.8h-1c-0.1-0.4-0.2-0.7-0.4-1s-0.6-0.4-1.1-0.4c-0.7,0-1.2,0.3-1.4,1
		c-0.2,0.4-0.3,0.9-0.3,1.6c0,0.6,0.1,1.2,0.4,1.6s0.7,0.6,1.3,0.6c0.4,0,0.8-0.1,1-0.4s0.4-0.6,0.5-1.1h1c-0.1,0.8-0.4,1.4-0.9,1.8
		s-1.1,0.6-1.8,0.6c-0.8,0-1.5-0.3-2-0.9s-0.7-1.3-0.7-2.2c0-1.1,0.3-2,0.8-2.6s1.2-0.9,2-0.9C274.8,128,275.4,128.2,275.8,128.5z"
		/>
	<path d="M278.9,128.2v4.2c0,0.3,0,0.6,0.1,0.8c0.2,0.4,0.5,0.6,1,0.6c0.7,0,1.2-0.3,1.5-1c0.1-0.4,0.2-0.8,0.2-1.4v-3.1h1.1v6.3h-1
		l0-0.9c-0.1,0.2-0.3,0.4-0.5,0.6c-0.4,0.3-0.9,0.5-1.4,0.5c-0.9,0-1.5-0.3-1.8-0.9c-0.2-0.3-0.3-0.7-0.3-1.3v-4.3H278.9z"/>
	<path d="M284.6,128.2h1v0.9c0.2-0.3,0.5-0.5,0.7-0.7c0.3-0.2,0.7-0.4,1.2-0.4c0.5,0,0.9,0.1,1.2,0.4c0.2,0.1,0.3,0.3,0.5,0.6
		c0.2-0.3,0.5-0.6,0.8-0.7s0.7-0.2,1.1-0.2c0.8,0,1.4,0.3,1.7,0.9c0.2,0.3,0.2,0.8,0.2,1.3v4.2H292v-4.4c0-0.4-0.1-0.7-0.3-0.9
		s-0.5-0.2-0.8-0.2c-0.4,0-0.8,0.1-1.1,0.4s-0.4,0.7-0.4,1.4v3.7h-1.1v-4.1c0-0.4-0.1-0.7-0.2-0.9c-0.2-0.3-0.5-0.4-0.9-0.4
		c-0.4,0-0.8,0.2-1.1,0.5s-0.5,0.9-0.5,1.7v3.3h-1.1V128.2z"/>
	<path d="M298.6,128.4c0.4,0.2,0.7,0.5,0.9,0.8c0.2,0.3,0.3,0.7,0.4,1.1c0.1,0.3,0.1,0.8,0.1,1.4h-4.6c0,0.6,0.2,1.2,0.4,1.5
		s0.7,0.6,1.3,0.6c0.5,0,1-0.2,1.3-0.5c0.2-0.2,0.3-0.5,0.4-0.7h1c0,0.2-0.1,0.5-0.3,0.8s-0.3,0.5-0.5,0.7c-0.3,0.3-0.7,0.5-1.2,0.6
		c-0.3,0.1-0.5,0.1-0.9,0.1c-0.8,0-1.4-0.3-2-0.9s-0.8-1.4-0.8-2.4c0-1,0.3-1.8,0.8-2.5s1.3-0.9,2.1-0.9
		C297.8,128,298.2,128.1,298.6,128.4z M299,130.8c0-0.5-0.1-0.8-0.3-1.1c-0.3-0.5-0.8-0.8-1.4-0.8c-0.5,0-0.9,0.2-1.2,0.5
		c-0.3,0.3-0.5,0.8-0.5,1.3H299z"/>
	<path d="M301.5,128.2h1v0.9c0.3-0.4,0.6-0.6,0.9-0.8s0.7-0.2,1.1-0.2c0.9,0,1.5,0.3,1.8,0.9c0.2,0.3,0.3,0.8,0.3,1.5v4h-1.1v-4
		c0-0.4-0.1-0.7-0.2-0.9c-0.2-0.4-0.5-0.6-1-0.6c-0.2,0-0.5,0-0.6,0.1c-0.3,0.1-0.5,0.3-0.8,0.5c-0.2,0.2-0.3,0.4-0.3,0.6
		s-0.1,0.5-0.1,0.9v3.3h-1.1V128.2z"/>
	<path d="M308.5,126.4h1.1v1.8h1v0.9h-1v4.1c0,0.2,0.1,0.4,0.2,0.4c0.1,0,0.2,0.1,0.4,0.1c0.1,0,0.1,0,0.2,0s0.1,0,0.2,0v0.8
		c-0.1,0-0.2,0.1-0.4,0.1s-0.3,0-0.4,0c-0.5,0-0.8-0.1-1-0.4s-0.3-0.6-0.3-1V129h-0.8v-0.9h0.8V126.4z"/>
	<path d="M316.3,128.8c0.6,0.5,0.8,1.3,0.8,2.4c0,1-0.2,1.8-0.7,2.5s-1.2,1-2.3,1c-0.9,0-1.5-0.3-2-0.9s-0.8-1.4-0.8-2.4
		c0-1.1,0.3-1.9,0.8-2.5c0.5-0.6,1.2-0.9,2.1-0.9C315.1,128,315.8,128.3,316.3,128.8z M315.7,133c0.3-0.5,0.4-1.1,0.4-1.8
		c0-0.6-0.1-1.1-0.3-1.4c-0.3-0.6-0.8-0.9-1.5-0.9c-0.6,0-1.1,0.2-1.4,0.7c-0.3,0.5-0.4,1.1-0.4,1.8c0,0.7,0.1,1.2,0.4,1.7
		c0.3,0.4,0.7,0.7,1.4,0.7C314.9,133.8,315.4,133.5,315.7,133z"/>
</g>
<g>
	<path d="M148.9,36.7h1.2v8.6h-1.2V36.7z"/>
	<path d="M152,39h1v0.9c0.3-0.4,0.6-0.6,0.9-0.8s0.7-0.2,1.1-0.2c0.9,0,1.5,0.3,1.8,0.9c0.2,0.3,0.3,0.8,0.3,1.5v4H156v-4
		c0-0.4-0.1-0.7-0.2-0.9c-0.2-0.4-0.5-0.6-1-0.6c-0.2,0-0.5,0-0.6,0.1c-0.3,0.1-0.5,0.3-0.8,0.5c-0.2,0.2-0.3,0.4-0.3,0.6
		S153,41.6,153,42v3.3H152V39z"/>
	<path d="M158.8,36.7h1.1v1.2h-1.1V36.7z M158.8,39h1.1v6.2h-1.1V39z"/>
	<path d="M165.7,39.4c0.4,0.3,0.7,0.9,0.8,1.8h-1c-0.1-0.4-0.2-0.7-0.4-1s-0.6-0.4-1.1-0.4c-0.7,0-1.2,0.3-1.4,1
		c-0.2,0.4-0.3,0.9-0.3,1.6c0,0.6,0.1,1.2,0.4,1.6s0.7,0.6,1.3,0.6c0.4,0,0.8-0.1,1-0.4s0.4-0.6,0.5-1.1h1c-0.1,0.8-0.4,1.4-0.9,1.8
		s-1.1,0.6-1.8,0.6c-0.8,0-1.5-0.3-2-0.9s-0.7-1.3-0.7-2.2c0-1.1,0.3-2,0.8-2.6s1.2-0.9,2-0.9C164.7,38.8,165.3,39,165.7,39.4z"/>
	<path d="M167.7,36.7h1.1v1.2h-1.1V36.7z M167.7,39h1.1v6.2h-1.1V39z"/>
	<path d="M175,39.6c0.6,0.5,0.8,1.3,0.8,2.4c0,1-0.2,1.8-0.7,2.5c-0.5,0.7-1.2,1-2.3,1c-0.9,0-1.5-0.3-2-0.9s-0.8-1.4-0.8-2.4
		c0-1.1,0.3-1.9,0.8-2.5c0.5-0.6,1.2-0.9,2.1-0.9C173.8,38.8,174.5,39.1,175,39.6z M174.4,43.8c0.3-0.5,0.4-1.1,0.4-1.8
		c0-0.6-0.1-1.1-0.3-1.4c-0.3-0.6-0.8-0.9-1.5-0.9c-0.6,0-1.1,0.2-1.4,0.7s-0.4,1.1-0.4,1.8c0,0.7,0.1,1.2,0.4,1.7s0.7,0.7,1.4,0.7
		C173.6,44.6,174.1,44.3,174.4,43.8z"/>
	<path d="M182.7,36.7h0.9l-2.7,8.6h-0.9L182.7,36.7z"/>
	<path d="M187.9,36.7h6v1.1H189v2.6h4.2v1H189v3.9h-1.2V36.7z"/>
	<path d="M195.1,36.7h1.1v1.2h-1.1V36.7z M195.1,39h1.1v6.2h-1.1V39z"/>
	<path d="M197.9,39h1v0.9c0.3-0.4,0.6-0.6,0.9-0.8s0.7-0.2,1.1-0.2c0.9,0,1.5,0.3,1.8,0.9c0.2,0.3,0.3,0.8,0.3,1.5v4h-1.1v-4
		c0-0.4-0.1-0.7-0.2-0.9c-0.2-0.4-0.5-0.6-1-0.6c-0.2,0-0.5,0-0.6,0.1c-0.3,0.1-0.5,0.3-0.8,0.5c-0.2,0.2-0.3,0.4-0.3,0.6
		s-0.1,0.5-0.1,0.9v3.3h-1.1V39z"/>
</g>
<g>
	<path d="M260.6,22.2h6.2v1.1h-5.1v2.6h4.7v1h-4.7v2.9h5.2v1h-6.3V22.2z"/>
	<path d="M268.7,22.8h1.1v1.8h1v0.9h-1v4.1c0,0.2,0.1,0.4,0.2,0.4c0.1,0,0.2,0.1,0.4,0.1c0.1,0,0.1,0,0.2,0s0.1,0,0.2,0v0.8
		c-0.1,0-0.2,0.1-0.4,0.1s-0.3,0-0.4,0c-0.5,0-0.8-0.1-1-0.4s-0.3-0.6-0.3-1v-4.2h-0.8v-0.9h0.8V22.8z"/>
	<path d="M275.3,27c0.2,0,0.4-0.1,0.5-0.3c0-0.1,0.1-0.2,0.1-0.4c0-0.4-0.1-0.6-0.4-0.8c-0.3-0.2-0.6-0.2-1.1-0.2
		c-0.5,0-0.9,0.1-1.2,0.4c-0.1,0.2-0.2,0.4-0.3,0.7h-1c0-0.8,0.3-1.3,0.8-1.6c0.5-0.3,1-0.5,1.7-0.5c0.7,0,1.3,0.1,1.8,0.4
		c0.5,0.3,0.7,0.7,0.7,1.3v3.6c0,0.1,0,0.2,0.1,0.3c0,0.1,0.1,0.1,0.3,0.1c0,0,0.1,0,0.2,0s0.1,0,0.2,0v0.8c-0.2,0-0.3,0.1-0.4,0.1
		s-0.2,0-0.4,0c-0.4,0-0.6-0.1-0.8-0.4c-0.1-0.1-0.1-0.3-0.2-0.6c-0.2,0.3-0.5,0.5-0.9,0.7s-0.8,0.3-1.3,0.3c-0.6,0-1.1-0.2-1.4-0.5
		s-0.6-0.8-0.6-1.3c0-0.6,0.2-1,0.5-1.4s0.8-0.5,1.4-0.6L275.3,27z M273,29.8c0.2,0.2,0.5,0.3,0.8,0.3c0.4,0,0.7-0.1,1.1-0.3
		c0.6-0.3,0.9-0.8,0.9-1.4v-0.8c-0.1,0.1-0.3,0.2-0.5,0.2c-0.2,0.1-0.4,0.1-0.6,0.1l-0.6,0.1c-0.4,0.1-0.7,0.1-0.9,0.2
		c-0.3,0.2-0.5,0.5-0.5,0.9C272.7,29.4,272.8,29.7,273,29.8z"/>
	<path d="M278.6,24.5h1v0.8c0.2-0.3,0.4-0.5,0.7-0.7c0.4-0.2,0.8-0.4,1.3-0.4c0.7,0,1.3,0.3,1.8,0.8c0.5,0.5,0.7,1.3,0.7,2.3
		c0,1.4-0.4,2.3-1.1,2.9c-0.5,0.4-1,0.6-1.6,0.6c-0.5,0-0.9-0.1-1.2-0.3c-0.2-0.1-0.4-0.3-0.6-0.6v3.2h-1.1V24.5z M282.6,29.5
		c0.3-0.4,0.5-1,0.5-1.8c0-0.5-0.1-0.9-0.2-1.3c-0.3-0.7-0.8-1-1.5-1c-0.7,0-1.2,0.4-1.5,1.1c-0.1,0.4-0.2,0.9-0.2,1.5
		c0,0.5,0.1,0.9,0.2,1.2c0.3,0.6,0.8,1,1.5,1C281.8,30.1,282.2,29.9,282.6,29.5z"/>
	<path d="M288.9,27c0.2,0,0.4-0.1,0.5-0.3c0-0.1,0.1-0.2,0.1-0.4c0-0.4-0.1-0.6-0.4-0.8c-0.3-0.2-0.6-0.2-1.1-0.2
		c-0.5,0-0.9,0.1-1.2,0.4c-0.1,0.2-0.2,0.4-0.3,0.7h-1c0-0.8,0.3-1.3,0.8-1.6c0.5-0.3,1-0.5,1.7-0.5c0.7,0,1.3,0.1,1.8,0.4
		c0.5,0.3,0.7,0.7,0.7,1.3v3.6c0,0.1,0,0.2,0.1,0.3c0,0.1,0.1,0.1,0.3,0.1c0,0,0.1,0,0.2,0s0.1,0,0.2,0v0.8c-0.2,0-0.3,0.1-0.4,0.1
		s-0.2,0-0.4,0c-0.4,0-0.6-0.1-0.8-0.4c-0.1-0.1-0.1-0.3-0.2-0.6c-0.2,0.3-0.5,0.5-0.9,0.7s-0.8,0.3-1.3,0.3c-0.6,0-1.1-0.2-1.4-0.5
		s-0.6-0.8-0.6-1.3c0-0.6,0.2-1,0.5-1.4s0.8-0.5,1.4-0.6L288.9,27z M286.6,29.8c0.2,0.2,0.5,0.3,0.8,0.3c0.4,0,0.7-0.1,1.1-0.3
		c0.6-0.3,0.9-0.8,0.9-1.4v-0.8c-0.1,0.1-0.3,0.2-0.5,0.2c-0.2,0.1-0.4,0.1-0.6,0.1l-0.6,0.1c-0.4,0.1-0.7,0.1-0.9,0.2
		c-0.3,0.2-0.5,0.5-0.5,0.9C286.3,29.4,286.4,29.7,286.6,29.8z"/>
	<path d="M299.2,24.7c0.2,0.1,0.4,0.3,0.6,0.6v-3.2h1v8.6h-0.9v-0.9c-0.2,0.4-0.5,0.7-0.9,0.8s-0.7,0.3-1.1,0.3
		c-0.7,0-1.3-0.3-1.8-0.9s-0.8-1.4-0.8-2.3c0-0.9,0.2-1.7,0.7-2.4s1.1-1,2-1C298.5,24.4,298.9,24.5,299.2,24.7z M296.8,29.4
		c0.3,0.5,0.7,0.7,1.4,0.7c0.5,0,0.9-0.2,1.2-0.6s0.5-1,0.5-1.8c0-0.8-0.2-1.4-0.5-1.8s-0.7-0.6-1.2-0.6c-0.5,0-1,0.2-1.3,0.6
		s-0.5,1-0.5,1.8C296.4,28.4,296.5,29,296.8,29.4z"/>
	<path d="M306.4,24.7c0.4,0.2,0.7,0.5,0.9,0.8c0.2,0.3,0.3,0.7,0.4,1.1c0.1,0.3,0.1,0.8,0.1,1.4h-4.6c0,0.6,0.2,1.2,0.4,1.5
		s0.7,0.6,1.3,0.6c0.5,0,1-0.2,1.3-0.5c0.2-0.2,0.3-0.5,0.4-0.7h1c0,0.2-0.1,0.5-0.3,0.8s-0.3,0.5-0.5,0.7c-0.3,0.3-0.7,0.5-1.2,0.6
		c-0.3,0.1-0.5,0.1-0.9,0.1c-0.8,0-1.4-0.3-2-0.9s-0.8-1.4-0.8-2.4c0-1,0.3-1.8,0.8-2.5s1.3-0.9,2.1-0.9
		C305.6,24.4,306,24.5,306.4,24.7z M306.8,27.2c0-0.5-0.1-0.8-0.3-1.1c-0.3-0.5-0.8-0.8-1.4-0.8c-0.5,0-0.9,0.2-1.2,0.5
		c-0.3,0.3-0.5,0.8-0.5,1.3H306.8z"/>
	<path d="M309.4,22.2h1.1v8.6h-1.1V22.2z"/>
	<path d="M264.4,38.9h1v0.8c0.2-0.3,0.4-0.5,0.7-0.7c0.4-0.2,0.8-0.4,1.3-0.4c0.7,0,1.3,0.3,1.8,0.8s0.7,1.3,0.7,2.3
		c0,1.4-0.4,2.3-1.1,2.9c-0.5,0.4-1,0.6-1.6,0.6c-0.5,0-0.9-0.1-1.2-0.3c-0.2-0.1-0.4-0.3-0.6-0.6v3.2h-1.1V38.9z M268.3,43.9
		c0.3-0.4,0.5-1,0.5-1.8c0-0.5-0.1-0.9-0.2-1.3c-0.3-0.7-0.8-1-1.5-1c-0.7,0-1.2,0.4-1.5,1.1c-0.1,0.4-0.2,0.9-0.2,1.5
		c0,0.5,0.1,0.9,0.2,1.2c0.3,0.6,0.8,1,1.5,1C267.6,44.5,268,44.3,268.3,43.9z"/>
	<path d="M271.3,38.9h1V40c0.1-0.2,0.3-0.5,0.6-0.8s0.7-0.5,1.1-0.5c0,0,0.1,0,0.1,0s0.1,0,0.2,0v1.1c-0.1,0-0.1,0-0.2,0
		s-0.1,0-0.2,0c-0.5,0-0.9,0.2-1.2,0.5s-0.4,0.7-0.4,1.2v3.6h-1.1V38.9z"/>
	<path d="M279.9,39.5c0.6,0.5,0.8,1.3,0.8,2.4c0,1-0.2,1.8-0.7,2.5s-1.2,1-2.3,1c-0.9,0-1.5-0.3-2-0.9c-0.5-0.6-0.8-1.4-0.8-2.4
		c0-1.1,0.3-1.9,0.8-2.5c0.5-0.6,1.2-0.9,2.1-0.9C278.7,38.7,279.4,39,279.9,39.5z M279.3,43.7c0.3-0.5,0.4-1.1,0.4-1.8
		c0-0.6-0.1-1.1-0.3-1.4c-0.3-0.6-0.8-0.9-1.5-0.9c-0.6,0-1.1,0.2-1.4,0.7s-0.4,1.1-0.4,1.8c0,0.7,0.1,1.2,0.4,1.7s0.7,0.7,1.4,0.7
		C278.5,44.5,279,44.2,279.3,43.7z"/>
	<path d="M286.3,39.3c0.4,0.3,0.7,0.9,0.8,1.8h-1c-0.1-0.4-0.2-0.7-0.4-1s-0.6-0.4-1.1-0.4c-0.7,0-1.2,0.3-1.4,1
		c-0.2,0.4-0.3,0.9-0.3,1.6c0,0.6,0.1,1.2,0.4,1.6s0.7,0.6,1.3,0.6c0.4,0,0.8-0.1,1-0.4s0.4-0.6,0.5-1.1h1c-0.1,0.8-0.4,1.4-0.9,1.8
		s-1.1,0.6-1.8,0.6c-0.8,0-1.5-0.3-2-0.9s-0.7-1.3-0.7-2.2c0-1.1,0.3-2,0.8-2.6s1.2-0.9,2-0.9C285.3,38.7,285.9,38.9,286.3,39.3z"/>
	<path d="M292.2,39.1c0.4,0.2,0.7,0.5,0.9,0.8c0.2,0.3,0.3,0.7,0.4,1.1c0.1,0.3,0.1,0.8,0.1,1.4H289c0,0.6,0.2,1.2,0.4,1.5
		c0.3,0.4,0.7,0.6,1.3,0.6c0.5,0,1-0.2,1.3-0.5c0.2-0.2,0.3-0.5,0.4-0.7h1c0,0.2-0.1,0.5-0.3,0.8s-0.3,0.5-0.5,0.7
		c-0.3,0.3-0.7,0.5-1.2,0.6c-0.3,0.1-0.5,0.1-0.9,0.1c-0.8,0-1.4-0.3-2-0.9c-0.5-0.6-0.8-1.4-0.8-2.4c0-1,0.3-1.8,0.8-2.5
		c0.5-0.6,1.3-0.9,2.1-0.9C291.3,38.8,291.7,38.9,292.2,39.1z M292.5,41.6c0-0.5-0.1-0.8-0.3-1.1c-0.3-0.5-0.8-0.8-1.4-0.8
		c-0.5,0-0.9,0.2-1.2,0.5s-0.5,0.8-0.5,1.3H292.5z"/>
	<path d="M295.7,43.2c0,0.4,0.1,0.6,0.3,0.8c0.3,0.3,0.7,0.5,1.4,0.5c0.4,0,0.8-0.1,1.1-0.3s0.5-0.4,0.5-0.8c0-0.3-0.1-0.5-0.4-0.6
		c-0.2-0.1-0.5-0.2-0.9-0.3l-0.9-0.2c-0.5-0.1-0.9-0.3-1.2-0.4c-0.5-0.3-0.7-0.7-0.7-1.2c0-0.6,0.2-1.1,0.7-1.4
		c0.4-0.4,1-0.6,1.7-0.6c1,0,1.6,0.3,2.1,0.8c0.3,0.4,0.4,0.7,0.4,1.1h-1c0-0.2-0.1-0.5-0.3-0.6c-0.2-0.3-0.7-0.4-1.3-0.4
		c-0.4,0-0.7,0.1-0.9,0.2s-0.3,0.4-0.3,0.6c0,0.3,0.1,0.5,0.4,0.7c0.2,0.1,0.4,0.2,0.7,0.3l0.7,0.2c0.8,0.2,1.3,0.4,1.6,0.5
		c0.4,0.3,0.6,0.7,0.6,1.3c0,0.6-0.2,1-0.6,1.4c-0.4,0.4-1.1,0.6-2,0.6c-0.9,0-1.6-0.2-2-0.6c-0.4-0.4-0.6-0.9-0.6-1.6H295.7z"/>
	<path d="M305.7,39.5c0.6,0.5,0.8,1.3,0.8,2.4c0,1-0.2,1.8-0.7,2.5s-1.2,1-2.3,1c-0.9,0-1.5-0.3-2-0.9s-0.8-1.4-0.8-2.4
		c0-1.1,0.3-1.9,0.8-2.5c0.5-0.6,1.2-0.9,2.1-0.9C304.5,38.7,305.2,39,305.7,39.5z M305.1,43.7c0.3-0.5,0.4-1.1,0.4-1.8
		c0-0.6-0.1-1.1-0.3-1.4c-0.3-0.6-0.8-0.9-1.5-0.9c-0.6,0-1.1,0.2-1.4,0.7c-0.3,0.5-0.4,1.1-0.4,1.8c0,0.7,0.1,1.2,0.4,1.7
		c0.3,0.4,0.7,0.7,1.4,0.7C304.4,44.5,304.8,44.2,305.1,43.7z"/>
</g>
<g>
	<rect x="240.3" y="55.3" class="st1" width="92.1" height="33.7"/>
	<path d="M331.5,56.3V88h-90.1V56.3H331.5 M333.5,54.3h-94.1V90h94.1V54.3L333.5,54.3z"/>
</g>
<g>
	<polygon class="st1" points="261.1,274.8 261.1,252.8 311.9,252.8 311.9,274.8 286.4,295 	"/>
	<path d="M310.9,253.8v20.5l-24.6,19.4l-24.3-19.4v-20.5H310.9 M312.9,251.8h-52.9v23.5l26.3,21l26.6-21V251.8L312.9,251.8z"/>
</g>
<g>
	<polygon class="st1" points="149.5,286.5 135,269 149.4,252.8 212,252.8 226.5,270 212,286.5 	"/>
	<path d="M211.6,253.8l13.6,16.2l-13.6,15.5h-61.7L136.3,269l13.6-15.3H211.6 M212.5,251.8H149L133.7,269l15.3,18.5h63.5l15.3-17.5
		L212.5,251.8L212.5,251.8z"/>
</g>
<g>
	<polygon class="st1" points="130.3,180 147.3,146.3 221.2,146.3 204.2,180 	"/>
	<path d="M219.6,147.3l-16,31.7h-71.7l16-31.7H219.6 M222.8,145.3h-76.1l-18,35.7h76.1L222.8,145.3L222.8,145.3z"/>
</g>
<g>
	<path class="st1" d="M146.5,89c-9.3,0-16.8-7.6-16.8-16.8s7.6-16.8,16.8-16.8H205c9.3,0,16.8,7.6,16.8,16.8S214.3,89,205,89H146.5z
		"/>
	<path d="M205,56.3c8.7,0,15.8,7.1,15.8,15.8S213.7,88,205,88h-58.5c-8.7,0-15.8-7.1-15.8-15.8s7.1-15.8,15.8-15.8H205 M205,54.3
		h-58.5c-9.9,0-17.8,8-17.8,17.8s8,17.8,17.8,17.8H205c9.9,0,17.8-8,17.8-17.8S214.8,54.3,205,54.3L205,54.3z"/>
</g>
<g>
	<polygon class="st1" points="21.3,163.1 65.1,143 108.9,163.1 65.1,183.3 	"/>
	<path d="M65.1,144.1l41.4,19l-41.4,19l-41.4-19L65.1,144.1 M65.1,141.9l-46.2,21.2l46.2,21.2l46.2-21.2L65.1,141.9L65.1,141.9z"/>
</g>
<path class="st2" d="M329.6,145.3v35c-43.1,0-44,16-70.1,15.5c-7.3-0.1-16-6.5-16-6.5v-44H329.6z"/>
<g>
	<g>
		<rect x="19" y="252.8" class="st1" width="92.1" height="33.7"/>
		<path d="M110.2,253.8v31.7H20v-31.7H110.2 M112.2,251.8H18v35.7h94.1V251.8L112.2,251.8z"/>
	</g>
	<g>
		<line class="st0" x1="30" y1="251.8" x2="30" y2="287.5"/>
	</g>
	<g>
		<line class="st0" x1="100" y1="251.8" x2="100" y2="287.5"/>
	</g>
</g>
<g>
</g>
<g>
</g>
<g>
</g>
<g>
</g>
<g>
</g>
<g>
</g>
<g>
</g>
<g>
</g>
<g>
</g>
<g>
</g>
</svg>
